<?xml version="1.0" encoding="UTF-8" standalone="no"?>
<svg width="279.4mm" height="215.9mm"
 viewBox="0 0 3300 2550"
 xmlns="http://www.w3.org/2000/svg" xmlns:xlink="http://www.w3.org/1999/xlink"  version="1.2" baseProfile="tiny">
<defs>
</defs>
<g fill="none" stroke="black" stroke-width="1" fill-rule="evenodd" stroke-linecap="square" stroke-linejoin="bevel" >

<g fill="#ffffff" fill-opacity="1" stroke="none" transform="matrix(1,0,0,1,0,0)"
font-family="Arial" font-size="12" font-weight="400" font-style="normal" 
>
<rect x="0" y="0" width="3300" height="2550"/>
</g>

<g fill="none" stroke="#000000" stroke-opacity="1" stroke-width="1" stroke-linecap="square" stroke-linejoin="bevel" transform="matrix(1,0,0,1,0,0)"
font-family="Arial" font-size="12" font-weight="400" font-style="normal" 
>
</g>

<g fill="#000000" fill-opacity="1" stroke="#000000" stroke-opacity="1" stroke-width="1" stroke-linecap="butt" stroke-linejoin="miter" stroke-miterlimit="2" transform="matrix(1,0,0,1,0,0)"
font-family="Arial" font-size="12" font-weight="400" font-style="normal" 
>
</g>

<g fill="#000000" fill-opacity="1" stroke="#000000" stroke-opacity="1" stroke-width="5" stroke-linecap="round" stroke-linejoin="bevel" transform="matrix(1,0,0,1,0,0)"
font-family="Arial" font-size="12" font-weight="400" font-style="normal" 
>
<polyline fill="none" vector-effect="none" points="375.245,449.903 375.263,448.43 375.318,446.958 375.408,445.489 375.534,444.022 375.697,442.558 375.895,441.099 376.129,439.645 376.398,438.197 376.703,436.756 377.043,435.324 377.419,433.9 377.829,432.485 378.274,431.082 378.753,429.689 379.266,428.309 379.813,426.942 380.393,425.588 381.006,424.249 381.652,422.926 382.33,421.619 383.04,420.329 383.782,419.056 384.554,417.803 385.357,416.568 386.19,415.354 387.053,414.161 387.945,412.989 388.865,411.839 389.813,410.712 390.788,409.609 391.791,408.53 392.819,407.476 393.873,406.448 394.952,405.445 396.055,404.47 397.182,403.522 398.331,402.602 399.503,401.71 400.697,400.847 401.911,400.014 403.146,399.211 404.399,398.439 405.671,397.697 406.962,396.987 408.269,396.309 409.592,395.663 410.931,395.05 412.284,394.47 413.652,393.923 415.032,393.41 416.424,392.931 417.828,392.486 419.243,392.076 420.667,391.701 422.099,391.36 423.54,391.055 424.988,390.786 426.442,390.552 427.901,390.354 429.364,390.191 430.831,390.065 432.301,389.975 433.773,389.921 435.245,389.903 " />
<polyline fill="none" vector-effect="none" points="375.245,929.903 375.245,449.903 " />
<polyline fill="none" vector-effect="none" points="435.245,989.903 433.773,989.884 432.301,989.83 430.831,989.74 429.364,989.614 427.901,989.451 426.442,989.253 424.988,989.019 423.54,988.75 422.099,988.445 420.667,988.104 419.243,987.729 417.828,987.319 416.424,986.874 415.032,986.395 413.652,985.882 412.284,985.335 410.931,984.755 409.592,984.142 408.269,983.496 406.962,982.818 405.671,982.108 404.399,981.366 403.146,980.594 401.911,979.791 400.697,978.958 399.503,978.095 398.331,977.203 397.182,976.283 396.055,975.335 394.952,974.36 393.873,973.357 392.819,972.329 391.791,971.275 390.788,970.196 389.813,969.093 388.865,967.966 387.945,966.816 387.053,965.645 386.19,964.451 385.357,963.237 384.554,962.002 383.782,960.749 383.04,959.476 382.33,958.186 381.652,956.879 381.006,955.556 380.393,954.217 379.813,952.864 379.266,951.496 378.753,950.116 378.274,948.723 377.829,947.32 377.419,945.905 377.043,944.481 376.703,943.049 376.398,941.608 376.129,940.16 375.895,938.706 375.697,937.247 375.534,935.784 375.408,934.316 375.318,932.847 375.263,931.375 375.245,929.903 " />
<polyline fill="none" vector-effect="none" points="1125.25,989.903 435.245,989.903 " />
<polyline fill="none" vector-effect="none" points="1185.09,1045.65 1184.97,1044.21 1184.82,1042.76 1184.63,1041.32 1184.4,1039.89 1184.14,1038.46 1183.85,1037.04 1183.52,1035.63 1183.16,1034.22 1182.76,1032.82 1182.33,1031.44 1181.87,1030.06 1181.37,1028.7 1180.84,1027.35 1180.28,1026.01 1179.69,1024.68 1179.06,1023.37 1178.41,1022.08 1177.72,1020.8 1177,1019.54 1176.25,1018.3 1175.47,1017.07 1174.66,1015.87 1173.82,1014.68 1172.96,1013.52 1172.06,1012.38 1171.14,1011.25 1170.19,1010.16 1169.22,1009.08 1168.22,1008.03 1167.19,1007 1166.14,1006 1165.07,1005.02 1163.97,1004.07 1162.85,1003.15 1161.71,1002.25 1160.55,1001.39 1159.36,1000.55 1158.16,999.735 1156.93,998.953 1155.69,998.202 1154.43,997.48 1153.16,996.79 1151.86,996.13 1150.55,995.502 1149.23,994.906 1147.89,994.341 1146.54,993.81 1145.18,993.311 1143.81,992.845 1142.42,992.413 1141.02,992.014 1139.62,991.65 1138.21,991.319 1136.79,991.023 1135.36,990.761 1133.92,990.534 1132.49,990.341 1131.04,990.183 1129.6,990.061 1128.15,989.973 1126.7,989.92 1125.25,989.903 " />
<polyline fill="none" vector-effect="none" points="1125.25,1101.4 1126.7,1101.38 1128.15,1101.33 1129.6,1101.24 1131.04,1101.12 1132.49,1100.96 1133.92,1100.77 1135.36,1100.54 1136.79,1100.28 1138.21,1099.99 1139.62,1099.65 1141.02,1099.29 1142.42,1098.89 1143.81,1098.46 1145.18,1097.99 1146.54,1097.49 1147.89,1096.96 1149.23,1096.4 1150.55,1095.8 1151.86,1095.17 1153.16,1094.51 1154.43,1093.82 1155.69,1093.1 1156.93,1092.35 1158.16,1091.57 1159.36,1090.76 1160.55,1089.92 1161.71,1089.05 1162.85,1088.16 1163.97,1087.23 1165.07,1086.28 1166.14,1085.31 1167.19,1084.3 1168.22,1083.28 1169.22,1082.22 1170.19,1081.15 1171.14,1080.05 1172.06,1078.93 1172.96,1077.78 1173.82,1076.62 1174.66,1075.43 1175.47,1074.23 1176.25,1073.01 1177,1071.76 1177.72,1070.5 1178.41,1069.22 1179.06,1067.93 1179.69,1066.62 1180.28,1065.3 1180.84,1063.96 1181.37,1062.61 1181.87,1061.24 1182.33,1059.87 1182.76,1058.48 1183.16,1057.08 1183.52,1055.68 1183.85,1054.26 1184.14,1052.84 1184.4,1051.41 1184.63,1049.98 1184.82,1048.54 1184.97,1047.1 1185.09,1045.65 " />
<polyline fill="none" vector-effect="none" points="345.245,1101.4 1125.25,1101.4 " />
<polyline fill="none" vector-effect="none" points="285.245,1041.4 285.263,1042.87 285.318,1044.35 285.408,1045.82 285.534,1047.28 285.697,1048.75 285.895,1050.21 286.129,1051.66 286.398,1053.11 286.703,1054.55 287.043,1055.98 287.419,1057.4 287.829,1058.82 288.274,1060.22 288.753,1061.62 289.266,1063 289.813,1064.36 290.393,1065.72 291.006,1067.06 291.652,1068.38 292.33,1069.69 293.04,1070.98 293.782,1072.25 294.554,1073.5 295.357,1074.74 296.19,1075.95 297.053,1077.14 297.945,1078.32 298.865,1079.47 299.813,1080.59 300.788,1081.7 301.791,1082.77 302.819,1083.83 303.873,1084.86 304.952,1085.86 306.055,1086.83 307.182,1087.78 308.331,1088.7 309.503,1089.59 310.697,1090.46 311.911,1091.29 313.146,1092.09 314.399,1092.87 315.671,1093.61 316.962,1094.32 318.269,1095 319.592,1095.64 320.931,1096.25 322.284,1096.83 323.652,1097.38 325.032,1097.89 326.424,1098.37 327.828,1098.82 329.243,1099.23 330.667,1099.6 332.099,1099.94 333.54,1100.25 334.988,1100.52 336.442,1100.75 337.901,1100.95 339.364,1101.11 340.831,1101.24 342.301,1101.33 343.773,1101.38 345.245,1101.4 " />
<polyline fill="none" vector-effect="none" points="285.245,336.402 285.245,1041.4 " />
<polyline fill="none" vector-effect="none" points="345.245,276.402 343.773,276.42 342.301,276.474 340.831,276.565 339.364,276.691 337.901,276.853 336.442,277.051 334.988,277.285 333.54,277.555 332.099,277.86 330.667,278.2 329.243,278.575 327.828,278.986 326.424,279.43 325.032,279.909 323.652,280.422 322.284,280.969 320.931,281.549 319.592,282.163 318.269,282.808 316.962,283.487 315.671,284.197 314.399,284.938 313.146,285.711 311.911,286.514 310.697,287.347 309.503,288.209 308.331,289.101 307.182,290.021 306.055,290.969 304.952,291.945 303.873,292.947 302.819,293.976 301.791,295.03 300.788,296.108 299.813,297.212 298.865,298.338 297.945,299.488 297.053,300.66 296.19,301.853 295.357,303.068 294.554,304.302 293.782,305.556 293.04,306.828 292.33,308.118 291.652,309.425 291.006,310.749 290.393,312.087 289.813,313.441 289.266,314.808 288.753,316.189 288.274,317.581 287.829,318.985 287.419,320.399 287.043,321.823 286.703,323.256 286.398,324.697 286.129,326.144 285.895,327.598 285.697,329.057 285.534,330.521 285.408,331.988 285.318,333.458 285.263,334.929 285.245,336.402 " />
<polyline fill="none" vector-effect="none" points="345.245,276.402 1125.25,276.402 " />
<polyline fill="none" vector-effect="none" points="1185.16,333.152 1185.06,331.688 1184.93,330.226 1184.76,328.768 1184.55,327.315 1184.31,325.867 1184.04,324.426 1183.73,322.991 1183.38,321.565 1183,320.147 1182.59,318.739 1182.14,317.342 1181.65,315.956 1181.14,314.583 1180.59,313.222 1180,311.876 1179.39,310.544 1178.74,309.227 1178.06,307.927 1177.35,306.644 1176.6,305.378 1175.83,304.131 1175.02,302.904 1174.19,301.696 1173.33,300.509 1172.43,299.344 1171.51,298.201 1170.56,297.081 1169.59,295.984 1168.59,294.912 1167.56,293.864 1166.51,292.842 1165.43,291.846 1164.33,290.876 1163.2,289.934 1162.05,289.019 1160.88,288.133 1159.69,287.276 1158.48,286.448 1157.25,285.65 1156,284.882 1154.73,284.146 1153.44,283.44 1152.14,282.766 1150.82,282.125 1149.48,281.515 1148.13,280.939 1146.77,280.396 1145.39,279.886 1144.01,279.41 1142.61,278.968 1141.2,278.561 1139.78,278.188 1138.35,277.85 1136.91,277.547 1135.47,277.279 1134.02,277.047 1132.57,276.85 1131.11,276.689 1129.64,276.563 1128.18,276.474 1126.71,276.42 1125.25,276.402 " />
<polyline fill="none" vector-effect="none" points="1125.25,389.903 1126.71,389.885 1128.18,389.831 1129.64,389.741 1131.11,389.616 1132.57,389.454 1134.02,389.257 1135.47,389.025 1136.91,388.757 1138.35,388.454 1139.78,388.116 1141.2,387.744 1142.61,387.336 1144.01,386.894 1145.39,386.418 1146.77,385.909 1148.13,385.366 1149.48,384.789 1150.82,384.18 1152.14,383.538 1153.44,382.864 1154.73,382.159 1156,381.422 1157.25,380.654 1158.48,379.856 1159.69,379.029 1160.88,378.171 1162.05,377.285 1163.2,376.371 1164.33,375.428 1165.43,374.459 1166.51,373.463 1167.56,372.441 1168.59,371.393 1169.59,370.32 1170.56,369.224 1171.51,368.103 1172.43,366.96 1173.33,365.795 1174.19,364.608 1175.02,363.401 1175.83,362.173 1176.6,360.926 1177.35,359.661 1178.06,358.378 1178.74,357.077 1179.39,355.761 1180,354.429 1180.59,353.082 1181.14,351.722 1181.65,350.348 1182.14,348.962 1182.59,347.565 1183,346.157 1183.38,344.74 1183.73,343.313 1184.04,341.879 1184.31,340.437 1184.55,338.989 1184.76,337.536 1184.93,336.078 1185.06,334.617 1185.16,333.152 " />
<polyline fill="none" vector-effect="none" points="1125.25,389.903 435.245,389.903 " />
<polyline fill="none" vector-effect="none" points="362.945,336.402 362.939,335.916 362.919,335.431 362.885,334.947 362.839,334.463 362.779,333.981 362.706,333.501 362.62,333.023 362.521,332.548 362.408,332.075 362.283,331.606 362.145,331.141 361.995,330.679 361.831,330.222 361.656,329.769 361.467,329.321 361.267,328.879 361.055,328.442 360.83,328.011 360.594,327.587 360.347,327.169 360.088,326.758 359.817,326.355 359.536,325.959 359.244,325.571 358.942,325.191 358.629,324.819 358.307,324.456 357.974,324.103 357.632,323.758 357.28,323.423 356.92,323.098 356.55,322.782 356.172,322.477 355.786,322.183 355.392,321.899 354.99,321.626 354.581,321.364 354.165,321.114 353.743,320.875 353.313,320.648 352.878,320.432 352.437,320.229 351.991,320.038 351.539,319.859 351.083,319.692 350.623,319.538 350.158,319.397 349.689,319.269 349.218,319.153 348.743,319.051 348.266,318.962 347.786,318.885 347.305,318.822 346.822,318.772 346.337,318.736 345.852,318.712 345.367,318.702 344.881,318.706 344.396,318.722 343.911,318.752 343.427,318.796 342.945,318.852 342.464,318.922 341.986,319.005 341.51,319.101 341.037,319.21 340.567,319.332 340.1,319.466 339.637,319.614 339.179,319.774 338.725,319.947 338.276,320.132 337.832,320.329 337.394,320.539 336.962,320.76 336.536,320.993 336.116,321.238 335.704,321.494 335.298,321.761 334.901,322.04 334.51,322.329 334.128,322.629 333.755,322.939 333.39,323.259 333.034,323.589 332.687,323.929 332.349,324.278 332.022,324.637 331.704,325.004 331.396,325.38 331.099,325.764 330.812,326.156 330.537,326.556 330.272,326.963 330.019,327.377 329.777,327.798 329.547,328.226 329.328,328.66 329.122,329.099 328.928,329.544 328.746,329.995 328.576,330.45 328.419,330.909 328.275,331.373 328.143,331.84 328.025,332.311 327.919,332.785 327.826,333.262 327.747,333.741 327.68,334.222 327.627,334.705 327.587,335.189 327.56,335.674 327.547,336.159 327.547,336.645 327.56,337.13 327.587,337.615 327.627,338.099 327.68,338.582 327.747,339.063 327.826,339.542 327.919,340.019 328.025,340.493 328.143,340.963 328.275,341.431 328.419,341.895 328.576,342.354 328.746,342.809 328.928,343.259 329.122,343.705 329.328,344.144 329.547,344.578 329.777,345.005 330.019,345.427 330.272,345.841 330.537,346.248 330.812,346.648 331.099,347.04 331.396,347.424 331.704,347.8 332.022,348.167 332.349,348.526 332.687,348.875 333.034,349.215 333.39,349.545 333.755,349.865 334.128,350.175 334.51,350.475 334.901,350.764 335.298,351.043 335.704,351.31 336.116,351.566 336.536,351.811 336.962,352.044 337.394,352.265 337.832,352.475 338.276,352.672 338.725,352.857 339.179,353.03 339.637,353.19 340.1,353.338 340.567,353.472 341.037,353.594 341.51,353.703 341.986,353.799 342.464,353.882 342.945,353.952 343.427,354.008 343.911,354.052 344.396,354.082 344.881,354.098 345.367,354.102 345.852,354.092 346.337,354.068 346.822,354.032 347.305,353.982 347.786,353.919 348.266,353.842 348.743,353.753 349.218,353.65 349.689,353.535 350.158,353.407 350.623,353.265 351.083,353.112 351.539,352.945 351.991,352.766 352.437,352.575 352.878,352.372 353.313,352.156 353.743,351.929 354.165,351.69 354.581,351.439 354.99,351.178 355.392,350.905 355.786,350.621 356.172,350.326 356.55,350.021 356.92,349.706 357.28,349.381 357.632,349.046 357.974,348.701 358.307,348.347 358.629,347.985 358.942,347.613 359.244,347.233 359.536,346.845 359.817,346.449 360.088,346.045 360.347,345.635 360.594,345.217 360.83,344.792 361.055,344.362 361.267,343.925 361.467,343.483 361.656,343.035 361.831,342.582 361.995,342.125 362.145,341.663 362.283,341.198 362.408,340.728 362.521,340.256 362.62,339.781 362.706,339.303 362.779,338.823 362.839,338.341 362.885,337.857 362.919,337.373 362.939,336.888 362.945,336.402 " />
<polyline fill="none" vector-effect="none" points="362.945,1041.4 362.939,1040.92 362.919,1040.43 362.885,1039.95 362.839,1039.46 362.779,1038.98 362.706,1038.5 362.62,1038.02 362.521,1037.55 362.408,1037.08 362.283,1036.61 362.145,1036.14 361.995,1035.68 361.831,1035.22 361.656,1034.77 361.467,1034.32 361.267,1033.88 361.055,1033.44 360.83,1033.01 360.594,1032.59 360.347,1032.17 360.088,1031.76 359.817,1031.35 359.536,1030.96 359.244,1030.57 358.942,1030.19 358.629,1029.82 358.307,1029.46 357.974,1029.1 357.632,1028.76 357.28,1028.42 356.92,1028.1 356.55,1027.78 356.172,1027.48 355.786,1027.18 355.392,1026.9 354.99,1026.63 354.581,1026.36 354.165,1026.11 353.743,1025.87 353.313,1025.65 352.878,1025.43 352.437,1025.23 351.991,1025.04 351.539,1024.86 351.083,1024.69 350.623,1024.54 350.158,1024.4 349.689,1024.27 349.218,1024.15 348.743,1024.05 348.266,1023.96 347.786,1023.89 347.305,1023.82 346.822,1023.77 346.337,1023.74 345.852,1023.71 345.367,1023.7 344.881,1023.71 344.396,1023.72 343.911,1023.75 343.427,1023.8 342.945,1023.85 342.464,1023.92 341.986,1024 341.51,1024.1 341.037,1024.21 340.567,1024.33 340.1,1024.47 339.637,1024.61 339.179,1024.77 338.725,1024.95 338.276,1025.13 337.832,1025.33 337.394,1025.54 336.962,1025.76 336.536,1025.99 336.116,1026.24 335.704,1026.49 335.298,1026.76 334.901,1027.04 334.51,1027.33 334.128,1027.63 333.755,1027.94 333.39,1028.26 333.034,1028.59 332.687,1028.93 332.349,1029.28 332.022,1029.64 331.704,1030 331.396,1030.38 331.099,1030.76 330.812,1031.16 330.537,1031.56 330.272,1031.96 330.019,1032.38 329.777,1032.8 329.547,1033.23 329.328,1033.66 329.122,1034.1 328.928,1034.54 328.746,1034.99 328.576,1035.45 328.419,1035.91 328.275,1036.37 328.143,1036.84 328.025,1037.31 327.919,1037.79 327.826,1038.26 327.747,1038.74 327.68,1039.22 327.627,1039.7 327.587,1040.19 327.56,1040.67 327.547,1041.16 327.547,1041.64 327.56,1042.13 327.587,1042.62 327.627,1043.1 327.68,1043.58 327.747,1044.06 327.826,1044.54 327.919,1045.02 328.025,1045.49 328.143,1045.96 328.275,1046.43 328.419,1046.89 328.576,1047.35 328.746,1047.81 328.928,1048.26 329.122,1048.7 329.328,1049.14 329.547,1049.58 329.777,1050.01 330.019,1050.43 330.272,1050.84 330.537,1051.25 330.812,1051.65 331.099,1052.04 331.396,1052.42 331.704,1052.8 332.022,1053.17 332.349,1053.53 332.687,1053.87 333.034,1054.21 333.39,1054.54 333.755,1054.87 334.128,1055.18 334.51,1055.48 334.901,1055.76 335.298,1056.04 335.704,1056.31 336.116,1056.57 336.536,1056.81 336.962,1057.04 337.394,1057.27 337.832,1057.47 338.276,1057.67 338.725,1057.86 339.179,1058.03 339.637,1058.19 340.1,1058.34 340.567,1058.47 341.037,1058.59 341.51,1058.7 341.986,1058.8 342.464,1058.88 342.945,1058.95 343.427,1059.01 343.911,1059.05 344.396,1059.08 344.881,1059.1 345.367,1059.1 345.852,1059.09 346.337,1059.07 346.822,1059.03 347.305,1058.98 347.786,1058.92 348.266,1058.84 348.743,1058.75 349.218,1058.65 349.689,1058.53 350.158,1058.41 350.623,1058.27 351.083,1058.11 351.539,1057.95 351.991,1057.77 352.437,1057.57 352.878,1057.37 353.313,1057.16 353.743,1056.93 354.165,1056.69 354.581,1056.44 354.99,1056.18 355.392,1055.9 355.786,1055.62 356.172,1055.33 356.55,1055.02 356.92,1054.71 357.28,1054.38 357.632,1054.05 357.974,1053.7 358.307,1053.35 358.629,1052.98 358.942,1052.61 359.244,1052.23 359.536,1051.84 359.817,1051.45 360.088,1051.05 360.347,1050.63 360.594,1050.22 360.83,1049.79 361.055,1049.36 361.267,1048.93 361.467,1048.48 361.656,1048.03 361.831,1047.58 361.995,1047.12 362.145,1046.66 362.283,1046.2 362.408,1045.73 362.521,1045.26 362.62,1044.78 362.706,1044.3 362.779,1043.82 362.839,1043.34 362.885,1042.86 362.919,1042.37 362.939,1041.89 362.945,1041.4 " />
<polyline fill="none" vector-effect="none" points="1142.95,1041.4 1142.94,1040.92 1142.92,1040.43 1142.89,1039.95 1142.84,1039.46 1142.78,1038.98 1142.71,1038.5 1142.62,1038.02 1142.52,1037.55 1142.41,1037.08 1142.28,1036.61 1142.15,1036.14 1141.99,1035.68 1141.83,1035.22 1141.66,1034.77 1141.47,1034.32 1141.27,1033.88 1141.05,1033.44 1140.83,1033.01 1140.59,1032.59 1140.35,1032.17 1140.09,1031.76 1139.82,1031.35 1139.54,1030.96 1139.24,1030.57 1138.94,1030.19 1138.63,1029.82 1138.31,1029.46 1137.97,1029.1 1137.63,1028.76 1137.28,1028.42 1136.92,1028.1 1136.55,1027.78 1136.17,1027.48 1135.79,1027.18 1135.39,1026.9 1134.99,1026.63 1134.58,1026.36 1134.17,1026.11 1133.74,1025.87 1133.31,1025.65 1132.88,1025.43 1132.44,1025.23 1131.99,1025.04 1131.54,1024.86 1131.08,1024.69 1130.62,1024.54 1130.16,1024.4 1129.69,1024.27 1129.22,1024.15 1128.74,1024.05 1128.27,1023.96 1127.79,1023.89 1127.3,1023.82 1126.82,1023.77 1126.34,1023.74 1125.85,1023.71 1125.37,1023.7 1124.88,1023.71 1124.4,1023.72 1123.91,1023.75 1123.43,1023.8 1122.95,1023.85 1122.46,1023.92 1121.99,1024 1121.51,1024.1 1121.04,1024.21 1120.57,1024.33 1120.1,1024.47 1119.64,1024.61 1119.18,1024.77 1118.73,1024.95 1118.28,1025.13 1117.83,1025.33 1117.39,1025.54 1116.96,1025.76 1116.54,1025.99 1116.12,1026.24 1115.7,1026.49 1115.3,1026.76 1114.9,1027.04 1114.51,1027.33 1114.13,1027.63 1113.75,1027.94 1113.39,1028.26 1113.03,1028.59 1112.69,1028.93 1112.35,1029.28 1112.02,1029.64 1111.7,1030 1111.4,1030.38 1111.1,1030.76 1110.81,1031.16 1110.54,1031.56 1110.27,1031.96 1110.02,1032.38 1109.78,1032.8 1109.55,1033.23 1109.33,1033.66 1109.12,1034.1 1108.93,1034.54 1108.75,1034.99 1108.58,1035.45 1108.42,1035.91 1108.27,1036.37 1108.14,1036.84 1108.02,1037.31 1107.92,1037.79 1107.83,1038.26 1107.75,1038.74 1107.68,1039.22 1107.63,1039.7 1107.59,1040.19 1107.56,1040.67 1107.55,1041.16 1107.55,1041.64 1107.56,1042.13 1107.59,1042.62 1107.63,1043.1 1107.68,1043.58 1107.75,1044.06 1107.83,1044.54 1107.92,1045.02 1108.02,1045.49 1108.14,1045.96 1108.27,1046.43 1108.42,1046.89 1108.58,1047.35 1108.75,1047.81 1108.93,1048.26 1109.12,1048.7 1109.33,1049.14 1109.55,1049.58 1109.78,1050.01 1110.02,1050.43 1110.27,1050.84 1110.54,1051.25 1110.81,1051.65 1111.1,1052.04 1111.4,1052.42 1111.7,1052.8 1112.02,1053.17 1112.35,1053.53 1112.69,1053.87 1113.03,1054.21 1113.39,1054.54 1113.75,1054.87 1114.13,1055.18 1114.51,1055.48 1114.9,1055.76 1115.3,1056.04 1115.7,1056.31 1116.12,1056.57 1116.54,1056.81 1116.96,1057.04 1117.39,1057.27 1117.83,1057.47 1118.28,1057.67 1118.73,1057.86 1119.18,1058.03 1119.64,1058.19 1120.1,1058.34 1120.57,1058.47 1121.04,1058.59 1121.51,1058.7 1121.99,1058.8 1122.46,1058.88 1122.95,1058.95 1123.43,1059.01 1123.91,1059.05 1124.4,1059.08 1124.88,1059.1 1125.37,1059.1 1125.85,1059.09 1126.34,1059.07 1126.82,1059.03 1127.3,1058.98 1127.79,1058.92 1128.27,1058.84 1128.74,1058.75 1129.22,1058.65 1129.69,1058.53 1130.16,1058.41 1130.62,1058.27 1131.08,1058.11 1131.54,1057.95 1131.99,1057.77 1132.44,1057.57 1132.88,1057.37 1133.31,1057.16 1133.74,1056.93 1134.17,1056.69 1134.58,1056.44 1134.99,1056.18 1135.39,1055.9 1135.79,1055.62 1136.17,1055.33 1136.55,1055.02 1136.92,1054.71 1137.28,1054.38 1137.63,1054.05 1137.97,1053.7 1138.31,1053.35 1138.63,1052.98 1138.94,1052.61 1139.24,1052.23 1139.54,1051.84 1139.82,1051.45 1140.09,1051.05 1140.35,1050.63 1140.59,1050.22 1140.83,1049.79 1141.05,1049.36 1141.27,1048.93 1141.47,1048.48 1141.66,1048.03 1141.83,1047.58 1141.99,1047.12 1142.15,1046.66 1142.28,1046.2 1142.41,1045.73 1142.52,1045.26 1142.62,1044.78 1142.71,1044.3 1142.78,1043.82 1142.84,1043.34 1142.89,1042.86 1142.92,1042.37 1142.94,1041.89 1142.95,1041.4 " />
<polyline fill="none" vector-effect="none" points="1142.95,336.402 1142.94,335.916 1142.92,335.431 1142.89,334.947 1142.84,334.463 1142.78,333.981 1142.71,333.501 1142.62,333.023 1142.52,332.548 1142.41,332.075 1142.28,331.606 1142.15,331.141 1141.99,330.679 1141.83,330.222 1141.66,329.769 1141.47,329.321 1141.27,328.879 1141.05,328.442 1140.83,328.011 1140.59,327.587 1140.35,327.169 1140.09,326.758 1139.82,326.355 1139.54,325.959 1139.24,325.571 1138.94,325.191 1138.63,324.819 1138.31,324.456 1137.97,324.103 1137.63,323.758 1137.28,323.423 1136.92,323.098 1136.55,322.782 1136.17,322.477 1135.79,322.183 1135.39,321.899 1134.99,321.626 1134.58,321.364 1134.17,321.114 1133.74,320.875 1133.31,320.648 1132.88,320.432 1132.44,320.229 1131.99,320.038 1131.54,319.859 1131.08,319.692 1130.62,319.538 1130.16,319.397 1129.69,319.269 1129.22,319.153 1128.74,319.051 1128.27,318.962 1127.79,318.885 1127.3,318.822 1126.82,318.772 1126.34,318.736 1125.85,318.712 1125.37,318.702 1124.88,318.706 1124.4,318.722 1123.91,318.752 1123.43,318.796 1122.95,318.852 1122.46,318.922 1121.99,319.005 1121.51,319.101 1121.04,319.21 1120.57,319.332 1120.1,319.466 1119.64,319.614 1119.18,319.774 1118.73,319.947 1118.28,320.132 1117.83,320.329 1117.39,320.539 1116.96,320.76 1116.54,320.993 1116.12,321.238 1115.7,321.494 1115.3,321.761 1114.9,322.04 1114.51,322.329 1114.13,322.629 1113.75,322.939 1113.39,323.259 1113.03,323.589 1112.69,323.929 1112.35,324.278 1112.02,324.637 1111.7,325.004 1111.4,325.38 1111.1,325.764 1110.81,326.156 1110.54,326.556 1110.27,326.963 1110.02,327.377 1109.78,327.798 1109.55,328.226 1109.33,328.66 1109.12,329.099 1108.93,329.544 1108.75,329.995 1108.58,330.45 1108.42,330.909 1108.27,331.373 1108.14,331.84 1108.02,332.311 1107.92,332.785 1107.83,333.262 1107.75,333.741 1107.68,334.222 1107.63,334.705 1107.59,335.189 1107.56,335.674 1107.55,336.159 1107.55,336.645 1107.56,337.13 1107.59,337.615 1107.63,338.099 1107.68,338.582 1107.75,339.063 1107.83,339.542 1107.92,340.019 1108.02,340.493 1108.14,340.963 1108.27,341.431 1108.42,341.895 1108.58,342.354 1108.75,342.809 1108.93,343.259 1109.12,343.705 1109.33,344.144 1109.55,344.578 1109.78,345.005 1110.02,345.427 1110.27,345.841 1110.54,346.248 1110.81,346.648 1111.1,347.04 1111.4,347.424 1111.7,347.8 1112.02,348.167 1112.35,348.526 1112.69,348.875 1113.03,349.215 1113.39,349.545 1113.75,349.865 1114.13,350.175 1114.51,350.475 1114.9,350.764 1115.3,351.043 1115.7,351.31 1116.12,351.566 1116.54,351.811 1116.96,352.044 1117.39,352.265 1117.83,352.475 1118.28,352.672 1118.73,352.857 1119.18,353.03 1119.64,353.19 1120.1,353.338 1120.57,353.472 1121.04,353.594 1121.51,353.703 1121.99,353.799 1122.46,353.882 1122.95,353.952 1123.43,354.008 1123.91,354.052 1124.4,354.082 1124.88,354.098 1125.37,354.102 1125.85,354.092 1126.34,354.068 1126.82,354.032 1127.3,353.982 1127.79,353.919 1128.27,353.842 1128.74,353.753 1129.22,353.65 1129.69,353.535 1130.16,353.407 1130.62,353.265 1131.08,353.112 1131.54,352.945 1131.99,352.766 1132.44,352.575 1132.88,352.372 1133.31,352.156 1133.74,351.929 1134.17,351.69 1134.58,351.439 1134.99,351.178 1135.39,350.905 1135.79,350.621 1136.17,350.326 1136.55,350.021 1136.92,349.706 1137.28,349.381 1137.63,349.046 1137.97,348.701 1138.31,348.347 1138.63,347.985 1138.94,347.613 1139.24,347.233 1139.54,346.845 1139.82,346.449 1140.09,346.045 1140.35,345.635 1140.59,345.217 1140.83,344.792 1141.05,344.362 1141.27,343.925 1141.47,343.483 1141.66,343.035 1141.83,342.582 1141.99,342.125 1142.15,341.663 1142.28,341.198 1142.41,340.728 1142.52,340.256 1142.62,339.781 1142.71,339.303 1142.78,338.823 1142.84,338.341 1142.89,337.857 1142.92,337.373 1142.94,336.888 1142.95,336.402 " />
</g>

<g fill="none" stroke="#000000" stroke-opacity="1" stroke-width="1" stroke-linecap="square" stroke-linejoin="bevel" transform="matrix(1,0,0,1,0,0)"
font-family="Arial" font-size="12" font-weight="400" font-style="normal" 
>
</g>
</g>
</svg>
