<?xml version="1.0" encoding="UTF-8" standalone="no"?>
<svg width="279.4mm" height="215.9mm"
 viewBox="0 0 3300 2550"
 xmlns="http://www.w3.org/2000/svg" xmlns:xlink="http://www.w3.org/1999/xlink"  version="1.2" baseProfile="tiny">
<defs>
</defs>
<g fill="none" stroke="black" stroke-width="1" fill-rule="evenodd" stroke-linecap="square" stroke-linejoin="bevel" >

<g fill="#ffffff" fill-opacity="1" stroke="none" transform="matrix(1,0,0,1,0,0)"
font-family="Arial" font-size="12" font-weight="400" font-style="normal" 
>
<rect x="0" y="0" width="3300" height="2550"/>
</g>

<g fill="none" stroke="#000000" stroke-opacity="1" stroke-width="1" stroke-linecap="square" stroke-linejoin="bevel" transform="matrix(1,0,0,1,0,0)"
font-family="Arial" font-size="12" font-weight="400" font-style="normal" 
>
</g>

<g fill="#000000" fill-opacity="1" stroke="#000000" stroke-opacity="1" stroke-width="1" stroke-linecap="butt" stroke-linejoin="miter" stroke-miterlimit="2" transform="matrix(1,0,0,1,0,0)"
font-family="Arial" font-size="12" font-weight="400" font-style="normal" 
>
</g>

<g fill="#000000" fill-opacity="1" stroke="#000000" stroke-opacity="1" stroke-width="5" stroke-linecap="round" stroke-linejoin="bevel" transform="matrix(1,0,0,1,0,0)"
font-family="Arial" font-size="12" font-weight="400" font-style="normal" 
>
<polyline fill="none" vector-effect="none" points="397.267,1136.09 1177.27,1136.09 " />
<polyline fill="none" vector-effect="none" points="337.267,1076.09 337.285,1077.56 337.339,1079.03 337.429,1080.5 337.556,1081.97 337.718,1083.43 337.916,1084.89 338.15,1086.34 338.42,1087.79 338.725,1089.23 339.065,1090.67 339.44,1092.09 339.85,1093.5 340.295,1094.91 340.774,1096.3 341.287,1097.68 341.834,1099.05 342.414,1100.4 343.027,1101.74 343.673,1103.06 344.352,1104.37 345.062,1105.66 345.803,1106.93 346.576,1108.19 347.379,1109.42 348.212,1110.63 349.074,1111.83 349.966,1113 350.886,1114.15 351.834,1115.28 352.81,1116.38 353.812,1117.46 354.84,1118.51 355.894,1119.54 356.973,1120.54 358.076,1121.52 359.203,1122.47 360.353,1123.39 361.525,1124.28 362.718,1125.14 363.933,1125.97 365.167,1126.78 366.421,1127.55 367.693,1128.29 368.983,1129 370.29,1129.68 371.613,1130.33 372.952,1130.94 374.306,1131.52 375.673,1132.07 377.053,1132.58 378.446,1133.06 379.85,1133.5 381.264,1133.91 382.688,1134.29 384.121,1134.63 385.561,1134.93 387.009,1135.2 388.463,1135.44 389.922,1135.64 391.386,1135.8 392.853,1135.92 394.323,1136.01 395.794,1136.07 397.267,1136.09 " />
<polyline fill="none" vector-effect="none" points="337.267,371.086 337.267,1076.09 " />
<polyline fill="none" vector-effect="none" points="397.267,311.086 395.794,311.104 394.323,311.159 392.853,311.249 391.386,311.375 389.922,311.537 388.463,311.736 387.009,311.97 385.561,312.239 384.121,312.544 382.688,312.884 381.264,313.26 379.85,313.67 378.446,314.115 377.053,314.594 375.673,315.107 374.306,315.653 372.952,316.234 371.613,316.847 370.29,317.493 368.983,318.171 367.693,318.881 366.421,319.623 365.167,320.395 363.933,321.198 362.718,322.031 361.525,322.894 360.353,323.785 359.203,324.706 358.076,325.654 356.973,326.629 355.894,327.631 354.84,328.66 353.812,329.714 352.81,330.793 351.834,331.896 350.886,333.023 349.966,334.172 349.074,335.344 348.212,336.538 347.379,337.752 346.576,338.986 345.803,340.24 345.062,341.512 344.352,342.802 343.673,344.11 343.027,345.433 342.414,346.772 341.834,348.125 341.287,349.493 340.774,350.873 340.295,352.265 339.85,353.669 339.44,355.083 339.065,356.507 338.725,357.94 338.42,359.381 338.15,360.829 337.916,362.282 337.718,363.742 337.556,365.205 337.429,366.672 337.339,368.142 337.285,369.614 337.267,371.086 " />
<polyline fill="none" vector-effect="none" points="397.267,311.086 1177.27,311.086 " />
<polyline fill="none" vector-effect="none" points="1237.1,366.644 1236.98,365.178 1236.81,363.714 1236.61,362.256 1236.38,360.802 1236.11,359.355 1235.8,357.915 1235.46,356.483 1235.09,355.06 1234.68,353.646 1234.23,352.243 1233.75,350.851 1233.24,349.471 1232.69,348.105 1232.11,346.752 1231.5,345.414 1230.85,344.091 1230.17,342.784 1229.46,341.495 1228.72,340.223 1227.95,338.97 1227.14,337.737 1226.31,336.523 1225.45,335.33 1224.56,334.159 1223.64,333.01 1222.69,331.884 1221.71,330.781 1220.71,329.703 1219.68,328.649 1218.63,327.622 1217.55,326.62 1216.45,325.645 1215.32,324.697 1214.17,323.778 1213,322.887 1211.81,322.024 1210.59,321.192 1209.36,320.389 1208.1,319.617 1206.83,318.876 1205.54,318.167 1204.24,317.489 1202.91,316.843 1201.57,316.23 1200.22,315.651 1198.85,315.104 1197.47,314.591 1196.08,314.113 1194.68,313.668 1193.26,313.258 1191.84,312.883 1190.41,312.543 1188.97,312.238 1187.52,311.969 1186.07,311.735 1184.61,311.537 1183.15,311.375 1181.68,311.249 1180.21,311.158 1178.74,311.104 1177.27,311.086 " />
<polyline fill="none" vector-effect="none" points="1177.27,422.202 1178.74,422.184 1180.21,422.13 1181.68,422.04 1183.15,421.913 1184.61,421.751 1186.07,421.553 1187.52,421.319 1188.97,421.05 1190.41,420.745 1191.84,420.405 1193.26,420.03 1194.68,419.62 1196.08,419.176 1197.47,418.697 1198.85,418.184 1200.22,417.638 1201.57,417.058 1202.91,416.445 1204.24,415.799 1205.54,415.122 1206.83,414.412 1208.1,413.671 1209.36,412.899 1210.59,412.096 1211.81,411.264 1213,410.402 1214.17,409.511 1215.32,408.591 1216.45,407.643 1217.55,406.668 1218.63,405.667 1219.68,404.639 1220.71,403.586 1221.71,402.507 1222.69,401.405 1223.64,400.279 1224.56,399.129 1225.45,397.958 1226.31,396.765 1227.14,395.552 1227.95,394.318 1228.72,393.065 1229.46,391.793 1230.17,390.504 1230.85,389.197 1231.5,387.875 1232.11,386.536 1232.69,385.184 1233.24,383.817 1233.75,382.437 1234.23,381.045 1234.68,379.642 1235.09,378.229 1235.46,376.805 1235.8,375.373 1236.11,373.933 1236.38,372.486 1236.61,371.032 1236.81,369.574 1236.98,368.111 1237.1,366.644 " />
<polyline fill="none" vector-effect="none" points="1177.27,422.202 487.267,422.202 " />
<polyline fill="none" vector-effect="none" points="427.267,482.202 427.285,480.73 427.339,479.258 427.429,477.788 427.556,476.321 427.718,474.857 427.916,473.398 428.15,471.944 428.42,470.497 428.725,469.056 429.065,467.623 429.44,466.199 429.85,464.785 430.295,463.381 430.774,461.989 431.287,460.608 431.834,459.241 432.414,457.888 433.027,456.549 433.673,455.225 434.352,453.918 435.062,452.628 435.803,451.356 436.576,450.102 437.379,448.868 438.212,447.654 439.074,446.46 439.966,445.288 440.886,444.138 441.834,443.012 442.81,441.908 443.812,440.83 444.84,439.776 445.894,438.747 446.973,437.745 448.076,436.77 449.203,435.821 450.353,434.901 451.525,434.01 452.718,433.147 453.933,432.314 455.167,431.511 456.421,430.738 457.693,429.997 458.983,429.287 460.29,428.609 461.613,427.963 462.952,427.349 464.306,426.769 465.673,426.222 467.053,425.709 468.446,425.23 469.85,424.786 471.264,424.375 472.688,424 474.121,423.66 475.561,423.355 477.009,423.085 478.463,422.851 479.922,422.653 481.386,422.491 482.853,422.365 484.323,422.274 485.794,422.22 487.267,422.202 " />
<polyline fill="none" vector-effect="none" points="427.267,962.202 427.267,482.202 " />
<polyline fill="none" vector-effect="none" points="487.267,1022.2 485.794,1022.18 484.323,1022.13 482.853,1022.04 481.386,1021.91 479.922,1021.75 478.463,1021.55 477.009,1021.32 475.561,1021.05 474.121,1020.74 472.688,1020.4 471.264,1020.03 469.85,1019.62 468.446,1019.17 467.053,1018.69 465.673,1018.18 464.306,1017.63 462.952,1017.05 461.613,1016.44 460.29,1015.8 458.983,1015.12 457.693,1014.41 456.421,1013.67 455.167,1012.89 453.933,1012.09 452.718,1011.26 451.525,1010.39 450.353,1009.5 449.203,1008.58 448.076,1007.63 446.973,1006.66 445.894,1005.66 444.84,1004.63 443.812,1003.57 442.81,1002.5 441.834,1001.39 440.886,1000.27 439.966,999.116 439.074,997.944 438.212,996.751 437.379,995.536 436.576,994.302 435.803,993.048 435.062,991.776 434.352,990.486 433.673,989.179 433.027,987.855 432.414,986.517 431.834,985.163 431.287,983.796 430.774,982.415 430.295,981.023 429.85,979.619 429.44,978.205 429.065,976.781 428.725,975.348 428.42,973.907 428.15,972.46 427.916,971.006 427.718,969.547 427.556,968.083 427.429,966.616 427.339,965.146 427.285,963.675 427.267,962.202 " />
<polyline fill="none" vector-effect="none" points="1177.27,1022.2 487.267,1022.2 " />
<polyline fill="none" vector-effect="none" points="1237.19,1079.14 1237.1,1077.68 1236.97,1076.21 1236.8,1074.75 1236.6,1073.29 1236.37,1071.84 1236.09,1070.4 1235.79,1068.96 1235.44,1067.53 1235.07,1066.11 1234.66,1064.69 1234.21,1063.29 1233.73,1061.9 1233.21,1060.52 1232.67,1059.16 1232.08,1057.81 1231.47,1056.47 1230.82,1055.15 1230.14,1053.85 1229.43,1052.56 1228.69,1051.29 1227.92,1050.04 1227.11,1048.81 1226.28,1047.59 1225.42,1046.4 1224.53,1045.23 1223.61,1044.09 1222.66,1042.96 1221.68,1041.86 1220.68,1040.79 1219.65,1039.73 1218.6,1038.71 1217.52,1037.71 1216.42,1036.73 1215.29,1035.79 1214.14,1034.87 1212.97,1033.98 1211.78,1033.12 1210.56,1032.29 1209.33,1031.49 1208.08,1030.72 1206.81,1029.98 1205.52,1029.27 1204.21,1028.59 1202.89,1027.95 1201.55,1027.34 1200.2,1026.76 1198.83,1026.21 1197.46,1025.7 1196.06,1025.22 1194.66,1024.78 1193.25,1024.37 1191.83,1024 1190.4,1023.66 1188.96,1023.35 1187.51,1023.08 1186.06,1022.85 1184.6,1022.65 1183.14,1022.49 1181.68,1022.36 1180.21,1022.27 1178.74,1022.22 1177.27,1022.2 " />
<polyline fill="none" vector-effect="none" points="1177.27,1136.09 1178.74,1136.07 1180.21,1136.01 1181.68,1135.92 1183.14,1135.8 1184.6,1135.64 1186.06,1135.44 1187.51,1135.21 1188.96,1134.94 1190.4,1134.63 1191.83,1134.29 1193.25,1133.92 1194.66,1133.51 1196.06,1133.07 1197.46,1132.59 1198.83,1132.08 1200.2,1131.53 1201.55,1130.95 1202.89,1130.34 1204.21,1129.7 1205.52,1129.02 1206.81,1128.31 1208.08,1127.57 1209.33,1126.8 1210.56,1126 1211.78,1125.17 1212.97,1124.31 1214.14,1123.42 1215.29,1122.5 1216.42,1121.55 1217.52,1120.58 1218.6,1119.58 1219.65,1118.55 1220.68,1117.5 1221.68,1116.43 1222.66,1115.33 1223.61,1114.2 1224.53,1113.05 1225.42,1111.88 1226.28,1110.69 1227.11,1109.48 1227.92,1108.25 1228.69,1107 1229.43,1105.73 1230.14,1104.44 1230.82,1103.14 1231.47,1101.82 1232.08,1100.48 1232.67,1099.13 1233.21,1097.76 1233.73,1096.39 1234.21,1095 1234.66,1093.59 1235.07,1092.18 1235.44,1090.76 1235.79,1089.33 1236.09,1087.89 1236.37,1086.45 1236.6,1085 1236.8,1083.54 1236.97,1082.08 1237.1,1080.61 1237.19,1079.14 " />
<polyline fill="none" vector-effect="none" points="414.967,371.086 414.96,370.601 414.94,370.115 414.907,369.631 414.86,369.148 414.8,368.666 414.727,368.186 414.641,367.708 414.542,367.232 414.43,366.76 414.305,366.291 414.167,365.825 414.016,365.363 413.853,364.906 413.677,364.453 413.489,364.006 413.288,363.563 413.076,363.126 412.852,362.696 412.616,362.271 412.368,361.854 412.109,361.443 411.839,361.039 411.558,360.643 411.266,360.255 410.963,359.875 410.651,359.504 410.328,359.141 409.995,358.787 409.653,358.442 409.302,358.107 408.941,357.782 408.572,357.467 408.194,357.162 407.808,356.867 407.414,356.583 407.012,356.31 406.603,356.049 406.187,355.798 405.764,355.559 405.335,355.332 404.9,355.117 404.459,354.913 404.012,354.722 403.561,354.543 403.105,354.377 402.644,354.223 402.179,354.082 401.711,353.953 401.239,353.838 400.765,353.735 400.287,353.646 399.808,353.57 399.326,353.506 398.843,353.457 398.359,353.42 397.874,353.397 397.388,353.387 396.903,353.39 396.417,353.407 395.933,353.437 395.449,353.48 394.966,353.536 394.486,353.606 394.007,353.689 393.531,353.785 393.058,353.894 392.588,354.016 392.121,354.151 391.659,354.298 391.2,354.458 390.746,354.631 390.297,354.816 389.854,355.013 389.416,355.223 388.983,355.444 388.557,355.677 388.138,355.922 387.725,356.178 387.32,356.446 386.922,356.724 386.532,357.013 386.15,357.313 385.776,357.623 385.411,357.943 385.055,358.274 384.708,358.613 384.371,358.963 384.043,359.321 383.725,359.688 383.418,360.064 383.12,360.448 382.834,360.84 382.558,361.24 382.294,361.647 382.04,362.062 381.798,362.483 381.568,362.91 381.35,363.344 381.143,363.784 380.949,364.229 380.767,364.679 380.598,365.134 380.441,365.594 380.296,366.057 380.165,366.525 380.046,366.996 379.94,367.47 379.848,367.946 379.768,368.425 379.702,368.906 379.648,369.389 379.608,369.873 379.582,370.358 379.568,370.843 379.568,371.329 379.582,371.815 379.608,372.299 379.648,372.783 379.702,373.266 379.768,373.747 379.848,374.226 379.94,374.703 380.046,375.177 380.165,375.648 380.296,376.115 380.441,376.579 380.598,377.038 380.767,377.494 380.949,377.944 381.143,378.389 381.35,378.828 381.568,379.262 381.798,379.69 382.04,380.111 382.294,380.525 382.558,380.932 382.834,381.332 383.12,381.724 383.418,382.108 383.725,382.484 384.043,382.851 384.371,383.21 384.708,383.559 385.055,383.899 385.411,384.229 385.776,384.549 386.15,384.86 386.532,385.159 386.922,385.449 387.32,385.727 387.725,385.994 388.138,386.25 388.557,386.495 388.983,386.728 389.416,386.95 389.854,387.159 390.297,387.356 390.746,387.542 391.2,387.714 391.659,387.874 392.121,388.022 392.588,388.157 393.058,388.279 393.531,388.388 394.007,388.484 394.486,388.566 394.966,388.636 395.449,388.693 395.933,388.736 396.417,388.766 396.903,388.783 397.388,388.786 397.874,388.776 398.359,388.753 398.843,388.716 399.326,388.666 399.808,388.603 400.287,388.527 400.765,388.437 401.239,388.335 401.711,388.219 402.179,388.091 402.644,387.95 403.105,387.796 403.561,387.629 404.012,387.451 404.459,387.259 404.9,387.056 405.335,386.841 405.764,386.613 406.187,386.374 406.603,386.124 407.012,385.862 407.414,385.589 407.808,385.305 408.194,385.011 408.572,384.706 408.941,384.39 409.302,384.065 409.653,383.73 409.995,383.386 410.328,383.032 410.651,382.669 410.963,382.297 411.266,381.917 411.558,381.529 411.839,381.133 412.109,380.73 412.368,380.319 412.616,379.901 412.852,379.477 413.076,379.046 413.288,378.609 413.489,378.167 413.677,377.719 413.853,377.267 414.016,376.809 414.167,376.348 414.305,375.882 414.43,375.413 414.542,374.94 414.641,374.465 414.727,373.987 414.8,373.507 414.86,373.025 414.907,372.542 414.94,372.057 414.96,371.572 414.967,371.086 " />
<polyline fill="none" vector-effect="none" points="414.967,1076.09 414.96,1075.6 414.94,1075.12 414.907,1074.63 414.86,1074.15 414.8,1073.67 414.727,1073.19 414.641,1072.71 414.542,1072.23 414.43,1071.76 414.305,1071.29 414.167,1070.82 414.016,1070.36 413.853,1069.91 413.677,1069.45 413.489,1069.01 413.288,1068.56 413.076,1068.13 412.852,1067.7 412.616,1067.27 412.368,1066.85 412.109,1066.44 411.839,1066.04 411.558,1065.64 411.266,1065.26 410.963,1064.88 410.651,1064.5 410.328,1064.14 409.995,1063.79 409.653,1063.44 409.302,1063.11 408.941,1062.78 408.572,1062.47 408.194,1062.16 407.808,1061.87 407.414,1061.58 407.012,1061.31 406.603,1061.05 406.187,1060.8 405.764,1060.56 405.335,1060.33 404.9,1060.12 404.459,1059.91 404.012,1059.72 403.561,1059.54 403.105,1059.38 402.644,1059.22 402.179,1059.08 401.711,1058.95 401.239,1058.84 400.765,1058.74 400.287,1058.65 399.808,1058.57 399.326,1058.51 398.843,1058.46 398.359,1058.42 397.874,1058.4 397.388,1058.39 396.903,1058.39 396.417,1058.41 395.933,1058.44 395.449,1058.48 394.966,1058.54 394.486,1058.61 394.007,1058.69 393.531,1058.78 393.058,1058.89 392.588,1059.02 392.121,1059.15 391.659,1059.3 391.2,1059.46 390.746,1059.63 390.297,1059.82 389.854,1060.01 389.416,1060.22 388.983,1060.44 388.557,1060.68 388.138,1060.92 387.725,1061.18 387.32,1061.45 386.922,1061.72 386.532,1062.01 386.15,1062.31 385.776,1062.62 385.411,1062.94 385.055,1063.27 384.708,1063.61 384.371,1063.96 384.043,1064.32 383.725,1064.69 383.418,1065.06 383.12,1065.45 382.834,1065.84 382.558,1066.24 382.294,1066.65 382.04,1067.06 381.798,1067.48 381.568,1067.91 381.35,1068.34 381.143,1068.78 380.949,1069.23 380.767,1069.68 380.598,1070.13 380.441,1070.59 380.296,1071.06 380.165,1071.52 380.046,1072 379.94,1072.47 379.848,1072.95 379.768,1073.43 379.702,1073.91 379.648,1074.39 379.608,1074.87 379.582,1075.36 379.568,1075.84 379.568,1076.33 379.582,1076.81 379.608,1077.3 379.648,1077.78 379.702,1078.27 379.768,1078.75 379.848,1079.23 379.94,1079.7 380.046,1080.18 380.165,1080.65 380.296,1081.12 380.441,1081.58 380.598,1082.04 380.767,1082.49 380.949,1082.94 381.143,1083.39 381.35,1083.83 381.568,1084.26 381.798,1084.69 382.04,1085.11 382.294,1085.53 382.558,1085.93 382.834,1086.33 383.12,1086.72 383.418,1087.11 383.725,1087.48 384.043,1087.85 384.371,1088.21 384.708,1088.56 385.055,1088.9 385.411,1089.23 385.776,1089.55 386.15,1089.86 386.532,1090.16 386.922,1090.45 387.32,1090.73 387.725,1090.99 388.138,1091.25 388.557,1091.5 388.983,1091.73 389.416,1091.95 389.854,1092.16 390.297,1092.36 390.746,1092.54 391.2,1092.71 391.659,1092.87 392.121,1093.02 392.588,1093.16 393.058,1093.28 393.531,1093.39 394.007,1093.48 394.486,1093.57 394.966,1093.64 395.449,1093.69 395.933,1093.74 396.417,1093.77 396.903,1093.78 397.388,1093.79 397.874,1093.78 398.359,1093.75 398.843,1093.72 399.326,1093.67 399.808,1093.6 400.287,1093.53 400.765,1093.44 401.239,1093.33 401.711,1093.22 402.179,1093.09 402.644,1092.95 403.105,1092.8 403.561,1092.63 404.012,1092.45 404.459,1092.26 404.9,1092.06 405.335,1091.84 405.764,1091.61 406.187,1091.37 406.603,1091.12 407.012,1090.86 407.414,1090.59 407.808,1090.31 408.194,1090.01 408.572,1089.71 408.941,1089.39 409.302,1089.07 409.653,1088.73 409.995,1088.39 410.328,1088.03 410.651,1087.67 410.963,1087.3 411.266,1086.92 411.558,1086.53 411.839,1086.13 412.109,1085.73 412.368,1085.32 412.616,1084.9 412.852,1084.48 413.076,1084.05 413.288,1083.61 413.489,1083.17 413.677,1082.72 413.853,1082.27 414.016,1081.81 414.167,1081.35 414.305,1080.88 414.43,1080.41 414.542,1079.94 414.641,1079.46 414.727,1078.99 414.8,1078.51 414.86,1078.02 414.907,1077.54 414.94,1077.06 414.96,1076.57 414.967,1076.09 " />
<polyline fill="none" vector-effect="none" points="1194.97,1076.09 1194.96,1075.6 1194.94,1075.12 1194.91,1074.63 1194.86,1074.15 1194.8,1073.67 1194.73,1073.19 1194.64,1072.71 1194.54,1072.23 1194.43,1071.76 1194.3,1071.29 1194.17,1070.82 1194.02,1070.36 1193.85,1069.91 1193.68,1069.45 1193.49,1069.01 1193.29,1068.56 1193.08,1068.13 1192.85,1067.7 1192.62,1067.27 1192.37,1066.85 1192.11,1066.44 1191.84,1066.04 1191.56,1065.64 1191.27,1065.26 1190.96,1064.88 1190.65,1064.5 1190.33,1064.14 1190,1063.79 1189.65,1063.44 1189.3,1063.11 1188.94,1062.78 1188.57,1062.47 1188.19,1062.16 1187.81,1061.87 1187.41,1061.58 1187.01,1061.31 1186.6,1061.05 1186.19,1060.8 1185.76,1060.56 1185.33,1060.33 1184.9,1060.12 1184.46,1059.91 1184.01,1059.72 1183.56,1059.54 1183.1,1059.38 1182.64,1059.22 1182.18,1059.08 1181.71,1058.95 1181.24,1058.84 1180.76,1058.74 1180.29,1058.65 1179.81,1058.57 1179.33,1058.51 1178.84,1058.46 1178.36,1058.42 1177.87,1058.4 1177.39,1058.39 1176.9,1058.39 1176.42,1058.41 1175.93,1058.44 1175.45,1058.48 1174.97,1058.54 1174.49,1058.61 1174.01,1058.69 1173.53,1058.78 1173.06,1058.89 1172.59,1059.02 1172.12,1059.15 1171.66,1059.3 1171.2,1059.46 1170.75,1059.63 1170.3,1059.82 1169.85,1060.01 1169.42,1060.22 1168.98,1060.44 1168.56,1060.68 1168.14,1060.92 1167.73,1061.18 1167.32,1061.45 1166.92,1061.72 1166.53,1062.01 1166.15,1062.31 1165.78,1062.62 1165.41,1062.94 1165.06,1063.27 1164.71,1063.61 1164.37,1063.96 1164.04,1064.32 1163.73,1064.69 1163.42,1065.06 1163.12,1065.45 1162.83,1065.84 1162.56,1066.24 1162.29,1066.65 1162.04,1067.06 1161.8,1067.48 1161.57,1067.91 1161.35,1068.34 1161.14,1068.78 1160.95,1069.23 1160.77,1069.68 1160.6,1070.13 1160.44,1070.59 1160.3,1071.06 1160.16,1071.52 1160.05,1072 1159.94,1072.47 1159.85,1072.95 1159.77,1073.43 1159.7,1073.91 1159.65,1074.39 1159.61,1074.87 1159.58,1075.36 1159.57,1075.84 1159.57,1076.33 1159.58,1076.81 1159.61,1077.3 1159.65,1077.78 1159.7,1078.27 1159.77,1078.75 1159.85,1079.23 1159.94,1079.7 1160.05,1080.18 1160.16,1080.65 1160.3,1081.12 1160.44,1081.58 1160.6,1082.04 1160.77,1082.49 1160.95,1082.94 1161.14,1083.39 1161.35,1083.83 1161.57,1084.26 1161.8,1084.69 1162.04,1085.11 1162.29,1085.53 1162.56,1085.93 1162.83,1086.33 1163.12,1086.72 1163.42,1087.11 1163.73,1087.48 1164.04,1087.85 1164.37,1088.21 1164.71,1088.56 1165.06,1088.9 1165.41,1089.23 1165.78,1089.55 1166.15,1089.86 1166.53,1090.16 1166.92,1090.45 1167.32,1090.73 1167.73,1090.99 1168.14,1091.25 1168.56,1091.5 1168.98,1091.73 1169.42,1091.95 1169.85,1092.16 1170.3,1092.36 1170.75,1092.54 1171.2,1092.71 1171.66,1092.87 1172.12,1093.02 1172.59,1093.16 1173.06,1093.28 1173.53,1093.39 1174.01,1093.48 1174.49,1093.57 1174.97,1093.64 1175.45,1093.69 1175.93,1093.74 1176.42,1093.77 1176.9,1093.78 1177.39,1093.79 1177.87,1093.78 1178.36,1093.75 1178.84,1093.72 1179.33,1093.67 1179.81,1093.6 1180.29,1093.53 1180.76,1093.44 1181.24,1093.33 1181.71,1093.22 1182.18,1093.09 1182.64,1092.95 1183.1,1092.8 1183.56,1092.63 1184.01,1092.45 1184.46,1092.26 1184.9,1092.06 1185.33,1091.84 1185.76,1091.61 1186.19,1091.37 1186.6,1091.12 1187.01,1090.86 1187.41,1090.59 1187.81,1090.31 1188.19,1090.01 1188.57,1089.71 1188.94,1089.39 1189.3,1089.07 1189.65,1088.73 1190,1088.39 1190.33,1088.03 1190.65,1087.67 1190.96,1087.3 1191.27,1086.92 1191.56,1086.53 1191.84,1086.13 1192.11,1085.73 1192.37,1085.32 1192.62,1084.9 1192.85,1084.48 1193.08,1084.05 1193.29,1083.61 1193.49,1083.17 1193.68,1082.72 1193.85,1082.27 1194.02,1081.81 1194.17,1081.35 1194.3,1080.88 1194.43,1080.41 1194.54,1079.94 1194.64,1079.46 1194.73,1078.99 1194.8,1078.51 1194.86,1078.02 1194.91,1077.54 1194.94,1077.06 1194.96,1076.57 1194.97,1076.09 " />
<polyline fill="none" vector-effect="none" points="1194.97,371.086 1194.96,370.601 1194.94,370.115 1194.91,369.631 1194.86,369.148 1194.8,368.666 1194.73,368.186 1194.64,367.708 1194.54,367.232 1194.43,366.76 1194.3,366.291 1194.17,365.825 1194.02,365.363 1193.85,364.906 1193.68,364.453 1193.49,364.006 1193.29,363.563 1193.08,363.126 1192.85,362.696 1192.62,362.271 1192.37,361.854 1192.11,361.443 1191.84,361.039 1191.56,360.643 1191.27,360.255 1190.96,359.875 1190.65,359.504 1190.33,359.141 1190,358.787 1189.65,358.442 1189.3,358.107 1188.94,357.782 1188.57,357.467 1188.19,357.162 1187.81,356.867 1187.41,356.583 1187.01,356.31 1186.6,356.049 1186.19,355.798 1185.76,355.559 1185.33,355.332 1184.9,355.117 1184.46,354.913 1184.01,354.722 1183.56,354.543 1183.1,354.377 1182.64,354.223 1182.18,354.082 1181.71,353.953 1181.24,353.838 1180.76,353.735 1180.29,353.646 1179.81,353.57 1179.33,353.506 1178.84,353.457 1178.36,353.42 1177.87,353.397 1177.39,353.387 1176.9,353.39 1176.42,353.407 1175.93,353.437 1175.45,353.48 1174.97,353.536 1174.49,353.606 1174.01,353.689 1173.53,353.785 1173.06,353.894 1172.59,354.016 1172.12,354.151 1171.66,354.298 1171.2,354.458 1170.75,354.631 1170.3,354.816 1169.85,355.013 1169.42,355.223 1168.98,355.444 1168.56,355.677 1168.14,355.922 1167.73,356.178 1167.32,356.446 1166.92,356.724 1166.53,357.013 1166.15,357.313 1165.78,357.623 1165.41,357.943 1165.06,358.274 1164.71,358.613 1164.37,358.963 1164.04,359.321 1163.73,359.688 1163.42,360.064 1163.12,360.448 1162.83,360.84 1162.56,361.24 1162.29,361.647 1162.04,362.062 1161.8,362.483 1161.57,362.91 1161.35,363.344 1161.14,363.784 1160.95,364.229 1160.77,364.679 1160.6,365.134 1160.44,365.594 1160.3,366.057 1160.16,366.525 1160.05,366.996 1159.94,367.47 1159.85,367.946 1159.77,368.425 1159.7,368.906 1159.65,369.389 1159.61,369.873 1159.58,370.358 1159.57,370.843 1159.57,371.329 1159.58,371.815 1159.61,372.299 1159.65,372.783 1159.7,373.266 1159.77,373.747 1159.85,374.226 1159.94,374.703 1160.05,375.177 1160.16,375.648 1160.3,376.115 1160.44,376.579 1160.6,377.038 1160.77,377.494 1160.95,377.944 1161.14,378.389 1161.35,378.828 1161.57,379.262 1161.8,379.69 1162.04,380.111 1162.29,380.525 1162.56,380.932 1162.83,381.332 1163.12,381.724 1163.42,382.108 1163.73,382.484 1164.04,382.851 1164.37,383.21 1164.71,383.559 1165.06,383.899 1165.41,384.229 1165.78,384.549 1166.15,384.86 1166.53,385.159 1166.92,385.449 1167.32,385.727 1167.73,385.994 1168.14,386.25 1168.56,386.495 1168.98,386.728 1169.42,386.95 1169.85,387.159 1170.3,387.356 1170.75,387.542 1171.2,387.714 1171.66,387.874 1172.12,388.022 1172.59,388.157 1173.06,388.279 1173.53,388.388 1174.01,388.484 1174.49,388.566 1174.97,388.636 1175.45,388.693 1175.93,388.736 1176.42,388.766 1176.9,388.783 1177.39,388.786 1177.87,388.776 1178.36,388.753 1178.84,388.716 1179.33,388.666 1179.81,388.603 1180.29,388.527 1180.76,388.437 1181.24,388.335 1181.71,388.219 1182.18,388.091 1182.64,387.95 1183.1,387.796 1183.56,387.629 1184.01,387.451 1184.46,387.259 1184.9,387.056 1185.33,386.841 1185.76,386.613 1186.19,386.374 1186.6,386.124 1187.01,385.862 1187.41,385.589 1187.81,385.305 1188.19,385.011 1188.57,384.706 1188.94,384.39 1189.3,384.065 1189.65,383.73 1190,383.386 1190.33,383.032 1190.65,382.669 1190.96,382.297 1191.27,381.917 1191.56,381.529 1191.84,381.133 1192.11,380.73 1192.37,380.319 1192.62,379.901 1192.85,379.477 1193.08,379.046 1193.29,378.609 1193.49,378.167 1193.68,377.719 1193.85,377.267 1194.02,376.809 1194.17,376.348 1194.3,375.882 1194.43,375.413 1194.54,374.94 1194.64,374.465 1194.73,373.987 1194.8,373.507 1194.86,373.025 1194.91,372.542 1194.94,372.057 1194.96,371.572 1194.97,371.086 " />
</g>

<g fill="none" stroke="#000000" stroke-opacity="1" stroke-width="1" stroke-linecap="square" stroke-linejoin="bevel" transform="matrix(1,0,0,1,0,0)"
font-family="Arial" font-size="12" font-weight="400" font-style="normal" 
>
</g>
</g>
</svg>
