<?xml version="1.0" encoding="UTF-8" standalone="no"?>
<svg width="279.4mm" height="215.9mm"
 viewBox="0 0 3300 2550"
 xmlns="http://www.w3.org/2000/svg" xmlns:xlink="http://www.w3.org/1999/xlink"  version="1.2" baseProfile="tiny">
<defs>
</defs>
<g fill="none" stroke="black" stroke-width="1" fill-rule="evenodd" stroke-linecap="square" stroke-linejoin="bevel" >

<g fill="#ffffff" fill-opacity="1" stroke="none" transform="matrix(1,0,0,1,0,0)"
font-family="Arial" font-size="12" font-weight="400" font-style="normal" 
>
<rect x="0" y="0" width="3300" height="2550"/>
</g>

<g fill="none" stroke="#000000" stroke-opacity="1" stroke-width="1" stroke-linecap="square" stroke-linejoin="bevel" transform="matrix(1,0,0,1,0,0)"
font-family="Arial" font-size="12" font-weight="400" font-style="normal" 
>
</g>

<g fill="#000000" fill-opacity="1" stroke="#000000" stroke-opacity="1" stroke-width="1" stroke-linecap="butt" stroke-linejoin="miter" stroke-miterlimit="2" transform="matrix(1,0,0,1,0,0)"
font-family="Arial" font-size="12" font-weight="400" font-style="normal" 
>
</g>

<g fill="#000000" fill-opacity="1" stroke="#000000" stroke-opacity="1" stroke-width="5" stroke-linecap="round" stroke-linejoin="bevel" transform="matrix(1,0,0,1,0,0)"
font-family="Arial" font-size="12" font-weight="400" font-style="normal" 
>
<polyline fill="none" vector-effect="none" points="246.181,989.375 246.2,990.848 246.254,992.32 246.344,993.789 246.47,995.257 246.633,996.72 246.831,998.179 247.065,999.633 247.334,1001.08 247.639,1002.52 247.98,1003.95 248.355,1005.38 248.765,1006.79 249.21,1008.2 249.689,1009.59 250.202,1010.97 250.749,1012.34 251.329,1013.69 251.942,1015.03 252.588,1016.35 253.266,1017.66 253.976,1018.95 254.718,1020.22 255.49,1021.48 256.293,1022.71 257.126,1023.92 257.989,1025.12 258.881,1026.29 259.801,1027.44 260.749,1028.57 261.724,1029.67 262.727,1030.75 263.755,1031.8 264.809,1032.83 265.888,1033.83 266.991,1034.81 268.118,1035.76 269.268,1036.68 270.44,1037.57 271.633,1038.43 272.847,1039.26 274.082,1040.07 275.335,1040.84 276.608,1041.58 277.898,1042.29 279.205,1042.97 280.528,1043.61 281.867,1044.23 283.22,1044.81 284.588,1045.36 285.968,1045.87 287.361,1046.35 288.764,1046.79 290.179,1047.2 291.603,1047.58 293.035,1047.92 294.476,1048.22 295.924,1048.49 297.378,1048.73 298.837,1048.92 300.3,1049.09 301.768,1049.21 303.237,1049.3 304.709,1049.36 306.181,1049.38 " />
<polyline fill="none" vector-effect="none" points="306.181,224.375 304.709,224.394 303.237,224.448 301.768,224.538 300.3,224.664 298.837,224.827 297.378,225.025 295.924,225.259 294.476,225.528 293.035,225.833 291.603,226.174 290.179,226.549 288.764,226.959 287.361,227.404 285.968,227.883 284.588,228.396 283.22,228.943 281.867,229.523 280.528,230.136 279.205,230.782 277.898,231.46 276.608,232.17 275.335,232.912 274.082,233.684 272.847,234.487 271.633,235.32 270.44,236.183 269.268,237.075 268.118,237.995 266.991,238.943 265.888,239.918 264.809,240.921 263.755,241.949 262.727,243.003 261.724,244.082 260.749,245.185 259.801,246.312 258.881,247.462 257.989,248.634 257.126,249.827 256.293,251.041 255.49,252.276 254.718,253.529 253.976,254.802 253.266,256.092 252.588,257.399 251.942,258.722 251.329,260.061 250.749,261.414 250.202,262.782 249.689,264.162 249.21,265.555 248.765,266.958 248.355,268.373 247.98,269.797 247.639,271.229 247.334,272.67 247.065,274.118 246.831,275.572 246.633,277.031 246.47,278.494 246.344,279.962 246.254,281.431 246.2,282.903 246.181,284.375 " />
<polyline fill="none" vector-effect="none" points="1146.18,284.375 1146.16,282.903 1146.11,281.431 1146.02,279.962 1145.89,278.494 1145.73,277.031 1145.53,275.572 1145.3,274.118 1145.03,272.67 1144.72,271.229 1144.38,269.797 1144.01,268.373 1143.6,266.958 1143.15,265.555 1142.67,264.162 1142.16,262.782 1141.61,261.414 1141.03,260.061 1140.42,258.722 1139.77,257.399 1139.1,256.092 1138.39,254.802 1137.65,253.529 1136.87,252.276 1136.07,251.041 1135.24,249.827 1134.37,248.634 1133.48,247.462 1132.56,246.312 1131.61,245.185 1130.64,244.082 1129.64,243.003 1128.61,241.949 1127.55,240.921 1126.48,239.918 1125.37,238.943 1124.25,237.995 1123.1,237.075 1121.92,236.183 1120.73,235.32 1119.52,234.487 1118.28,233.684 1117.03,232.912 1115.76,232.17 1114.47,231.46 1113.16,230.782 1111.83,230.136 1110.5,229.523 1109.14,228.943 1107.78,228.396 1106.39,227.883 1105,227.404 1103.6,226.959 1102.18,226.549 1100.76,226.174 1099.33,225.833 1097.89,225.528 1096.44,225.259 1094.99,225.025 1093.53,224.827 1092.06,224.664 1090.6,224.538 1089.13,224.448 1087.65,224.394 1086.18,224.375 " />
<polyline fill="none" vector-effect="none" points="1086.18,1049.38 1087.65,1049.36 1089.13,1049.3 1090.6,1049.21 1092.06,1049.09 1093.53,1048.92 1094.99,1048.73 1096.44,1048.49 1097.89,1048.22 1099.33,1047.92 1100.76,1047.58 1102.18,1047.2 1103.6,1046.79 1105,1046.35 1106.39,1045.87 1107.78,1045.36 1109.14,1044.81 1110.5,1044.23 1111.83,1043.61 1113.16,1042.97 1114.47,1042.29 1115.76,1041.58 1117.03,1040.84 1118.28,1040.07 1119.52,1039.26 1120.73,1038.43 1121.92,1037.57 1123.1,1036.68 1124.25,1035.76 1125.37,1034.81 1126.48,1033.83 1127.55,1032.83 1128.61,1031.8 1129.64,1030.75 1130.64,1029.67 1131.61,1028.57 1132.56,1027.44 1133.48,1026.29 1134.37,1025.12 1135.24,1023.92 1136.07,1022.71 1136.87,1021.48 1137.65,1020.22 1138.39,1018.95 1139.1,1017.66 1139.77,1016.35 1140.42,1015.03 1141.03,1013.69 1141.61,1012.34 1142.16,1010.97 1142.67,1009.59 1143.15,1008.2 1143.6,1006.79 1144.01,1005.38 1144.38,1003.95 1144.72,1002.52 1145.03,1001.08 1145.3,999.633 1145.53,998.179 1145.73,996.72 1145.89,995.257 1146.02,993.789 1146.11,992.32 1146.16,990.848 1146.18,989.375 " />
<polyline fill="none" vector-effect="none" points="634.923,518.709 634.916,518.223 634.896,517.738 634.863,517.254 634.816,516.77 634.756,516.288 634.683,515.808 634.597,515.33 634.498,514.855 634.386,514.382 634.261,513.913 634.123,513.448 633.972,512.986 633.809,512.529 633.633,512.076 633.445,511.628 633.244,511.186 633.032,510.749 632.808,510.318 632.572,509.894 632.324,509.476 632.065,509.065 631.795,508.662 631.514,508.266 631.222,507.878 630.919,507.498 630.607,507.126 630.284,506.763 629.951,506.41 629.609,506.065 629.258,505.73 628.897,505.405 628.528,505.09 628.15,504.785 627.764,504.49 627.37,504.206 626.968,503.933 626.559,503.671 626.143,503.421 625.72,503.182 625.291,502.955 624.856,502.739 624.415,502.536 623.968,502.345 623.517,502.166 623.061,501.999 622.6,501.846 622.135,501.704 621.667,501.576 621.195,501.461 620.721,501.358 620.243,501.269 619.764,501.192 619.282,501.129 618.799,501.079 618.315,501.043 617.83,501.019 617.344,501.009 616.859,501.013 616.373,501.029 615.889,501.059 615.405,501.103 614.923,501.159 614.442,501.229 613.963,501.312 613.487,501.408 613.014,501.517 612.544,501.639 612.077,501.773 611.615,501.921 611.156,502.081 610.702,502.254 610.253,502.439 609.81,502.636 609.372,502.846 608.939,503.067 608.513,503.3 608.094,503.545 607.681,503.801 607.276,504.068 606.878,504.347 606.488,504.636 606.106,504.936 605.732,505.246 605.367,505.566 605.011,505.896 604.664,506.236 604.327,506.585 603.999,506.944 603.681,507.311 603.374,507.687 603.076,508.071 602.79,508.463 602.514,508.863 602.25,509.27 601.996,509.684 601.754,510.105 601.524,510.533 601.306,510.967 601.099,511.406 600.905,511.851 600.723,512.302 600.554,512.757 600.397,513.216 600.252,513.68 600.121,514.147 600.002,514.618 599.896,515.092 599.804,515.569 599.724,516.048 599.658,516.529 599.604,517.012 599.564,517.496 599.538,517.981 599.524,518.466 599.524,518.952 599.538,519.437 599.564,519.922 599.604,520.406 599.658,520.889 599.724,521.37 599.804,521.849 599.896,522.326 600.002,522.8 600.121,523.271 600.252,523.738 600.397,524.202 600.554,524.661 600.723,525.116 600.905,525.567 601.099,526.012 601.306,526.451 601.524,526.885 601.754,527.313 601.996,527.734 602.25,528.148 602.514,528.555 602.79,528.955 603.076,529.347 603.374,529.731 603.681,530.107 603.999,530.474 604.327,530.833 604.664,531.182 605.011,531.522 605.367,531.852 605.732,532.172 606.106,532.482 606.488,532.782 606.878,533.071 607.276,533.35 607.681,533.617 608.094,533.873 608.513,534.118 608.939,534.351 609.372,534.572 609.81,534.782 610.253,534.979 610.702,535.164 611.156,535.337 611.615,535.497 612.077,535.645 612.544,535.779 613.014,535.901 613.487,536.01 613.963,536.106 614.442,536.189 614.923,536.259 615.405,536.315 615.889,536.359 616.373,536.389 616.859,536.405 617.344,536.409 617.83,536.399 618.315,536.375 618.799,536.339 619.282,536.289 619.764,536.226 620.243,536.149 620.721,536.06 621.195,535.957 621.667,535.842 622.135,535.714 622.6,535.572 623.061,535.419 623.517,535.252 623.968,535.073 624.415,534.882 624.856,534.679 625.291,534.463 625.72,534.236 626.143,533.997 626.559,533.747 626.968,533.485 627.37,533.212 627.764,532.928 628.15,532.634 628.528,532.328 628.897,532.013 629.258,531.688 629.609,531.353 629.951,531.008 630.284,530.655 630.607,530.292 630.919,529.92 631.222,529.54 631.514,529.152 631.795,528.756 632.065,528.353 632.324,527.942 632.572,527.524 632.808,527.1 633.032,526.669 633.244,526.232 633.445,525.79 633.633,525.342 633.809,524.889 633.972,524.432 634.123,523.97 634.261,523.505 634.386,523.036 634.498,522.563 634.597,522.088 634.683,521.61 634.756,521.13 634.816,520.648 634.863,520.164 634.896,519.68 634.916,519.195 634.923,518.709 " />
<polyline fill="none" vector-effect="none" points="634.954,755.158 634.947,754.672 634.927,754.187 634.894,753.702 634.847,753.219 634.788,752.737 634.715,752.257 634.628,751.779 634.529,751.304 634.417,750.831 634.292,750.362 634.154,749.896 634.003,749.435 633.84,748.977 633.664,748.525 633.476,748.077 633.275,747.634 633.063,747.198 632.839,746.767 632.603,746.343 632.355,745.925 632.096,745.514 631.826,745.111 631.545,744.715 631.253,744.326 630.951,743.946 630.638,743.575 630.315,743.212 629.982,742.858 629.64,742.514 629.289,742.179 628.928,741.853 628.559,741.538 628.181,741.233 627.795,740.939 627.401,740.655 626.999,740.382 626.59,740.12 626.174,739.87 625.751,739.631 625.322,739.403 624.887,739.188 624.446,738.985 623.999,738.793 623.548,738.614 623.092,738.448 622.631,738.294 622.166,738.153 621.698,738.025 621.226,737.909 620.752,737.807 620.274,737.717 619.795,737.641 619.313,737.578 618.83,737.528 618.346,737.491 617.861,737.468 617.375,737.458 616.89,737.461 616.404,737.478 615.92,737.508 615.436,737.551 614.954,737.608 614.473,737.677 613.994,737.76 613.518,737.856 613.045,737.965 612.575,738.087 612.109,738.222 611.646,738.369 611.187,738.53 610.734,738.702 610.285,738.887 609.841,739.085 609.403,739.294 608.97,739.515 608.544,739.749 608.125,739.993 607.712,740.249 607.307,740.517 606.909,740.795 606.519,741.084 606.137,741.384 605.763,741.694 605.398,742.015 605.042,742.345 604.695,742.685 604.358,743.034 604.03,743.392 603.712,743.76 603.405,744.135 603.107,744.519 602.821,744.912 602.545,745.311 602.281,745.719 602.027,746.133 601.786,746.554 601.555,746.982 601.337,747.415 601.131,747.855 600.936,748.3 600.754,748.75 600.585,749.205 600.428,749.665 600.283,750.129 600.152,750.596 600.033,751.067 599.927,751.541 599.835,752.018 599.755,752.497 599.689,752.978 599.635,753.46 599.595,753.944 599.569,754.429 599.556,754.915 599.556,755.4 599.569,755.886 599.595,756.371 599.635,756.855 599.689,757.337 599.755,757.818 599.835,758.298 599.927,758.774 600.033,759.248 600.152,759.719 600.283,760.187 600.428,760.65 600.585,761.11 600.754,761.565 600.936,762.015 601.131,762.46 601.337,762.9 601.555,763.334 601.786,763.761 602.027,764.182 602.281,764.597 602.545,765.004 602.821,765.404 603.107,765.796 603.405,766.18 603.712,766.556 604.03,766.923 604.358,767.281 604.695,767.63 605.042,767.97 605.398,768.3 605.763,768.621 606.137,768.931 606.519,769.231 606.909,769.52 607.307,769.798 607.712,770.066 608.125,770.322 608.544,770.567 608.97,770.8 609.403,771.021 609.841,771.23 610.285,771.428 610.734,771.613 611.187,771.786 611.646,771.946 612.109,772.093 612.575,772.228 613.045,772.35 613.518,772.459 613.994,772.555 614.473,772.638 614.954,772.707 615.436,772.764 615.92,772.807 616.404,772.837 616.89,772.854 617.375,772.857 617.861,772.847 618.346,772.824 618.83,772.787 619.313,772.737 619.795,772.674 620.274,772.598 620.752,772.509 621.226,772.406 621.698,772.291 622.166,772.162 622.631,772.021 623.092,771.867 623.548,771.701 623.999,771.522 624.446,771.331 624.887,771.127 625.322,770.912 625.751,770.685 626.174,770.446 626.59,770.195 626.999,769.933 627.401,769.66 627.795,769.377 628.181,769.082 628.559,768.777 628.928,768.462 629.289,768.137 629.64,767.801 629.982,767.457 630.315,767.103 630.638,766.74 630.951,766.369 631.253,765.989 631.545,765.601 631.826,765.205 632.096,764.801 632.355,764.39 632.603,763.972 632.839,763.548 633.063,763.117 633.275,762.681 633.476,762.238 633.664,761.791 633.84,761.338 634.003,760.881 634.154,760.419 634.292,759.953 634.417,759.484 634.529,759.012 634.628,758.536 634.715,758.058 634.788,757.578 634.847,757.096 634.894,756.613 634.927,756.128 634.947,755.643 634.954,755.158 " />
<polyline fill="none" vector-effect="none" points="948.041,519.267 948.034,518.781 948.014,518.296 947.981,517.811 947.934,517.328 947.874,516.846 947.801,516.366 947.715,515.888 947.616,515.413 947.504,514.94 947.379,514.471 947.241,514.005 947.09,513.544 946.927,513.086 946.751,512.633 946.563,512.186 946.362,511.743 946.15,511.307 945.926,510.876 945.689,510.452 945.442,510.034 945.183,509.623 944.913,509.219 944.632,508.823 944.34,508.435 944.037,508.055 943.725,507.684 943.402,507.321 943.069,506.967 942.727,506.623 942.375,506.288 942.015,505.962 941.645,505.647 941.268,505.342 940.881,505.047 940.487,504.764 940.086,504.491 939.677,504.229 939.261,503.979 938.838,503.74 938.409,503.512 937.973,503.297 937.532,503.093 937.086,502.902 936.635,502.723 936.178,502.557 935.718,502.403 935.253,502.262 934.785,502.134 934.313,502.018 933.838,501.916 933.361,501.826 932.881,501.75 932.4,501.687 931.917,501.637 931.433,501.6 930.948,501.577 930.462,501.567 929.976,501.57 929.491,501.587 929.006,501.617 928.523,501.66 928.04,501.717 927.56,501.786 927.081,501.869 926.605,501.965 926.132,502.074 925.662,502.196 925.195,502.331 924.733,502.478 924.274,502.639 923.82,502.811 923.371,502.996 922.928,503.194 922.489,503.403 922.057,503.624 921.631,503.858 921.212,504.102 920.799,504.358 920.394,504.626 919.996,504.904 919.606,505.193 919.224,505.493 918.85,505.803 918.485,506.124 918.129,506.454 917.782,506.794 917.445,507.143 917.117,507.501 916.799,507.869 916.491,508.244 916.194,508.628 915.908,509.021 915.632,509.42 915.367,509.828 915.114,510.242 914.872,510.663 914.642,511.091 914.424,511.524 914.217,511.964 914.023,512.409 913.841,512.859 913.671,513.314 913.514,513.774 913.37,514.238 913.239,514.705 913.12,515.176 913.014,515.65 912.921,516.127 912.842,516.606 912.775,517.087 912.722,517.569 912.682,518.053 912.656,518.538 912.642,519.024 912.642,519.509 912.656,519.995 912.682,520.48 912.722,520.964 912.775,521.446 912.842,521.927 912.921,522.407 913.014,522.883 913.12,523.357 913.239,523.828 913.37,524.296 913.514,524.759 913.671,525.219 913.841,525.674 914.023,526.124 914.217,526.569 914.424,527.009 914.642,527.442 914.872,527.87 915.114,528.291 915.367,528.706 915.632,529.113 915.908,529.513 916.194,529.905 916.491,530.289 916.799,530.665 917.117,531.032 917.445,531.39 917.782,531.739 918.129,532.079 918.485,532.409 918.85,532.73 919.224,533.04 919.606,533.34 919.996,533.629 920.394,533.907 920.799,534.175 921.212,534.431 921.631,534.675 922.057,534.909 922.489,535.13 922.928,535.339 923.371,535.537 923.82,535.722 924.274,535.894 924.733,536.055 925.195,536.202 925.662,536.337 926.132,536.459 926.605,536.568 927.081,536.664 927.56,536.747 928.04,536.816 928.523,536.873 929.006,536.916 929.491,536.946 929.976,536.963 930.462,536.966 930.948,536.956 931.433,536.933 931.917,536.896 932.4,536.846 932.881,536.783 933.361,536.707 933.838,536.617 934.313,536.515 934.785,536.4 935.253,536.271 935.718,536.13 936.178,535.976 936.635,535.81 937.086,535.631 937.532,535.44 937.973,535.236 938.409,535.021 938.838,534.794 939.261,534.555 939.677,534.304 940.086,534.042 940.487,533.769 940.881,533.486 941.268,533.191 941.645,532.886 942.015,532.571 942.375,532.245 942.727,531.91 943.069,531.566 943.402,531.212 943.725,530.849 944.037,530.478 944.34,530.098 944.632,529.71 944.913,529.314 945.183,528.91 945.442,528.499 945.689,528.081 945.926,527.657 946.15,527.226 946.362,526.79 946.563,526.347 946.751,525.9 946.927,525.447 947.09,524.99 947.241,524.528 947.379,524.062 947.504,523.593 947.616,523.121 947.715,522.645 947.801,522.167 947.874,521.687 947.934,521.205 947.981,520.722 948.014,520.237 948.034,519.752 948.041,519.267 " />
<polyline fill="none" vector-effect="none" points="323.881,284.375 323.875,283.89 323.855,283.405 323.822,282.92 323.775,282.437 323.715,281.955 323.642,281.475 323.556,280.997 323.457,280.521 323.345,280.049 323.219,279.58 323.081,279.114 322.931,278.652 322.767,278.195 322.592,277.742 322.403,277.295 322.203,276.852 321.991,276.416 321.766,275.985 321.53,275.561 321.283,275.143 321.024,274.732 320.754,274.328 320.472,273.932 320.181,273.544 319.878,273.164 319.565,272.793 319.243,272.43 318.91,272.076 318.568,271.732 318.216,271.397 317.856,271.071 317.486,270.756 317.108,270.451 316.722,270.156 316.328,269.873 315.927,269.6 315.518,269.338 315.101,269.087 314.679,268.849 314.25,268.621 313.814,268.406 313.373,268.202 312.927,268.011 312.475,267.832 312.019,267.666 311.559,267.512 311.094,267.371 310.626,267.242 310.154,267.127 309.679,267.025 309.202,266.935 308.722,266.859 308.241,266.796 307.758,266.746 307.273,266.709 306.788,266.686 306.303,266.676 305.817,266.679 305.332,266.696 304.847,266.726 304.364,266.769 303.881,266.826 303.401,266.895 302.922,266.978 302.446,267.074 301.973,267.183 301.503,267.305 301.036,267.44 300.574,267.587 300.115,267.748 299.661,267.92 299.212,268.105 298.768,268.303 298.33,268.512 297.898,268.733 297.472,268.967 297.053,269.211 296.64,269.467 296.235,269.735 295.837,270.013 295.447,270.302 295.065,270.602 294.691,270.912 294.326,271.233 293.97,271.563 293.623,271.903 293.285,272.252 292.958,272.61 292.64,272.977 292.332,273.353 292.035,273.737 291.749,274.129 291.473,274.529 291.208,274.936 290.955,275.351 290.713,275.772 290.483,276.2 290.265,276.633 290.058,277.073 289.864,277.518 289.682,277.968 289.512,278.423 289.355,278.883 289.211,279.346 289.079,279.814 288.961,280.285 288.855,280.759 288.762,281.236 288.683,281.715 288.616,282.196 288.563,282.678 288.523,283.162 288.496,283.647 288.483,284.133 288.483,284.618 288.496,285.104 288.523,285.589 288.563,286.073 288.616,286.555 288.683,287.036 288.762,287.515 288.855,287.992 288.961,288.466 289.079,288.937 289.211,289.404 289.355,289.868 289.512,290.328 289.682,290.783 289.864,291.233 290.058,291.678 290.265,292.118 290.483,292.551 290.713,292.979 290.955,293.4 291.208,293.814 291.473,294.222 291.749,294.621 292.035,295.014 292.332,295.398 292.64,295.773 292.958,296.141 293.285,296.499 293.623,296.848 293.97,297.188 294.326,297.518 294.691,297.839 295.065,298.149 295.447,298.449 295.837,298.738 296.235,299.016 296.64,299.284 297.053,299.54 297.472,299.784 297.898,300.018 298.33,300.239 298.768,300.448 299.212,300.646 299.661,300.831 300.115,301.003 300.574,301.164 301.036,301.311 301.503,301.446 301.973,301.568 302.446,301.677 302.922,301.773 303.401,301.856 303.881,301.925 304.364,301.982 304.847,302.025 305.332,302.055 305.817,302.072 306.303,302.075 306.788,302.065 307.273,302.042 307.758,302.005 308.241,301.955 308.722,301.892 309.202,301.816 309.679,301.726 310.154,301.624 310.626,301.508 311.094,301.38 311.559,301.239 312.019,301.085 312.475,300.919 312.927,300.74 313.373,300.549 313.814,300.345 314.25,300.13 314.679,299.902 315.101,299.663 315.518,299.413 315.927,299.151 316.328,298.878 316.722,298.595 317.108,298.3 317.486,297.995 317.856,297.68 318.216,297.354 318.568,297.019 318.91,296.675 319.243,296.321 319.565,295.958 319.878,295.587 320.181,295.207 320.472,294.819 320.754,294.423 321.024,294.019 321.283,293.608 321.53,293.19 321.766,292.766 321.991,292.335 322.203,291.899 322.403,291.456 322.592,291.009 322.767,290.556 322.931,290.098 323.081,289.637 323.219,289.171 323.345,288.702 323.457,288.23 323.556,287.754 323.642,287.276 323.715,286.796 323.775,286.314 323.822,285.831 323.855,285.346 323.875,284.861 323.881,284.375 " />
<polyline fill="none" vector-effect="none" points="323.881,989.375 323.875,988.89 323.855,988.405 323.822,987.92 323.775,987.437 323.715,986.955 323.642,986.475 323.556,985.997 323.457,985.521 323.345,985.049 323.219,984.58 323.081,984.114 322.931,983.652 322.767,983.195 322.592,982.742 322.403,982.295 322.203,981.852 321.991,981.416 321.766,980.985 321.53,980.561 321.283,980.143 321.024,979.732 320.754,979.328 320.472,978.932 320.181,978.544 319.878,978.164 319.565,977.793 319.243,977.43 318.91,977.076 318.568,976.732 318.216,976.397 317.856,976.071 317.486,975.756 317.108,975.451 316.722,975.156 316.328,974.873 315.927,974.6 315.518,974.338 315.101,974.087 314.679,973.849 314.25,973.621 313.814,973.406 313.373,973.202 312.927,973.011 312.475,972.832 312.019,972.666 311.559,972.512 311.094,972.371 310.626,972.242 310.154,972.127 309.679,972.025 309.202,971.935 308.722,971.859 308.241,971.796 307.758,971.746 307.273,971.709 306.788,971.686 306.303,971.676 305.817,971.679 305.332,971.696 304.847,971.726 304.364,971.769 303.881,971.826 303.401,971.895 302.922,971.978 302.446,972.074 301.973,972.183 301.503,972.305 301.036,972.44 300.574,972.587 300.115,972.748 299.661,972.92 299.212,973.105 298.768,973.303 298.33,973.512 297.898,973.733 297.472,973.967 297.053,974.211 296.64,974.467 296.235,974.735 295.837,975.013 295.447,975.302 295.065,975.602 294.691,975.912 294.326,976.233 293.97,976.563 293.623,976.903 293.285,977.252 292.958,977.61 292.64,977.977 292.332,978.353 292.035,978.737 291.749,979.129 291.473,979.529 291.208,979.936 290.955,980.351 290.713,980.772 290.483,981.2 290.265,981.633 290.058,982.073 289.864,982.518 289.682,982.968 289.512,983.423 289.355,983.883 289.211,984.346 289.079,984.814 288.961,985.285 288.855,985.759 288.762,986.236 288.683,986.715 288.616,987.196 288.563,987.678 288.523,988.162 288.496,988.647 288.483,989.133 288.483,989.618 288.496,990.104 288.523,990.589 288.563,991.073 288.616,991.555 288.683,992.036 288.762,992.515 288.855,992.992 288.961,993.466 289.079,993.937 289.211,994.404 289.355,994.868 289.512,995.328 289.682,995.783 289.864,996.233 290.058,996.678 290.265,997.118 290.483,997.551 290.713,997.979 290.955,998.4 291.208,998.814 291.473,999.222 291.749,999.621 292.035,1000.01 292.332,1000.4 292.64,1000.77 292.958,1001.14 293.285,1001.5 293.623,1001.85 293.97,1002.19 294.326,1002.52 294.691,1002.84 295.065,1003.15 295.447,1003.45 295.837,1003.74 296.235,1004.02 296.64,1004.28 297.053,1004.54 297.472,1004.78 297.898,1005.02 298.33,1005.24 298.768,1005.45 299.212,1005.65 299.661,1005.83 300.115,1006 300.574,1006.16 301.036,1006.31 301.503,1006.45 301.973,1006.57 302.446,1006.68 302.922,1006.77 303.401,1006.86 303.881,1006.93 304.364,1006.98 304.847,1007.03 305.332,1007.06 305.817,1007.07 306.303,1007.08 306.788,1007.07 307.273,1007.04 307.758,1007.01 308.241,1006.96 308.722,1006.89 309.202,1006.82 309.679,1006.73 310.154,1006.62 310.626,1006.51 311.094,1006.38 311.559,1006.24 312.019,1006.09 312.475,1005.92 312.927,1005.74 313.373,1005.55 313.814,1005.35 314.25,1005.13 314.679,1004.9 315.101,1004.66 315.518,1004.41 315.927,1004.15 316.328,1003.88 316.722,1003.59 317.108,1003.3 317.486,1002.99 317.856,1002.68 318.216,1002.35 318.568,1002.02 318.91,1001.67 319.243,1001.32 319.565,1000.96 319.878,1000.59 320.181,1000.21 320.472,999.819 320.754,999.423 321.024,999.019 321.283,998.608 321.53,998.19 321.766,997.766 321.991,997.335 322.203,996.899 322.403,996.456 322.592,996.009 322.767,995.556 322.931,995.098 323.081,994.637 323.219,994.171 323.345,993.702 323.457,993.23 323.556,992.754 323.642,992.276 323.715,991.796 323.775,991.314 323.822,990.831 323.855,990.346 323.875,989.861 323.881,989.375 " />
<polyline fill="none" vector-effect="none" points="1103.88,989.375 1103.87,988.89 1103.85,988.405 1103.82,987.92 1103.77,987.437 1103.72,986.955 1103.64,986.475 1103.56,985.997 1103.46,985.521 1103.34,985.049 1103.22,984.58 1103.08,984.114 1102.93,983.652 1102.77,983.195 1102.59,982.742 1102.4,982.295 1102.2,981.852 1101.99,981.416 1101.77,980.985 1101.53,980.561 1101.28,980.143 1101.02,979.732 1100.75,979.328 1100.47,978.932 1100.18,978.544 1099.88,978.164 1099.57,977.793 1099.24,977.43 1098.91,977.076 1098.57,976.732 1098.22,976.397 1097.86,976.071 1097.49,975.756 1097.11,975.451 1096.72,975.156 1096.33,974.873 1095.93,974.6 1095.52,974.338 1095.1,974.087 1094.68,973.849 1094.25,973.621 1093.81,973.406 1093.37,973.202 1092.93,973.011 1092.48,972.832 1092.02,972.666 1091.56,972.512 1091.09,972.371 1090.63,972.242 1090.15,972.127 1089.68,972.025 1089.2,971.935 1088.72,971.859 1088.24,971.796 1087.76,971.746 1087.27,971.709 1086.79,971.686 1086.3,971.676 1085.82,971.679 1085.33,971.696 1084.85,971.726 1084.36,971.769 1083.88,971.826 1083.4,971.895 1082.92,971.978 1082.45,972.074 1081.97,972.183 1081.5,972.305 1081.04,972.44 1080.57,972.587 1080.12,972.748 1079.66,972.92 1079.21,973.105 1078.77,973.303 1078.33,973.512 1077.9,973.733 1077.47,973.967 1077.05,974.211 1076.64,974.467 1076.23,974.735 1075.84,975.013 1075.45,975.302 1075.06,975.602 1074.69,975.912 1074.33,976.233 1073.97,976.563 1073.62,976.903 1073.29,977.252 1072.96,977.61 1072.64,977.977 1072.33,978.353 1072.04,978.737 1071.75,979.129 1071.47,979.529 1071.21,979.936 1070.96,980.351 1070.71,980.772 1070.48,981.2 1070.26,981.633 1070.06,982.073 1069.86,982.518 1069.68,982.968 1069.51,983.423 1069.36,983.883 1069.21,984.346 1069.08,984.814 1068.96,985.285 1068.85,985.759 1068.76,986.236 1068.68,986.715 1068.62,987.196 1068.56,987.678 1068.52,988.162 1068.5,988.647 1068.48,989.133 1068.48,989.618 1068.5,990.104 1068.52,990.589 1068.56,991.073 1068.62,991.555 1068.68,992.036 1068.76,992.515 1068.85,992.992 1068.96,993.466 1069.08,993.937 1069.21,994.404 1069.36,994.868 1069.51,995.328 1069.68,995.783 1069.86,996.233 1070.06,996.678 1070.26,997.118 1070.48,997.551 1070.71,997.979 1070.96,998.4 1071.21,998.814 1071.47,999.222 1071.75,999.621 1072.04,1000.01 1072.33,1000.4 1072.64,1000.77 1072.96,1001.14 1073.29,1001.5 1073.62,1001.85 1073.97,1002.19 1074.33,1002.52 1074.69,1002.84 1075.06,1003.15 1075.45,1003.45 1075.84,1003.74 1076.23,1004.02 1076.64,1004.28 1077.05,1004.54 1077.47,1004.78 1077.9,1005.02 1078.33,1005.24 1078.77,1005.45 1079.21,1005.65 1079.66,1005.83 1080.12,1006 1080.57,1006.16 1081.04,1006.31 1081.5,1006.45 1081.97,1006.57 1082.45,1006.68 1082.92,1006.77 1083.4,1006.86 1083.88,1006.93 1084.36,1006.98 1084.85,1007.03 1085.33,1007.06 1085.82,1007.07 1086.3,1007.08 1086.79,1007.07 1087.27,1007.04 1087.76,1007.01 1088.24,1006.96 1088.72,1006.89 1089.2,1006.82 1089.68,1006.73 1090.15,1006.62 1090.63,1006.51 1091.09,1006.38 1091.56,1006.24 1092.02,1006.09 1092.48,1005.92 1092.93,1005.74 1093.37,1005.55 1093.81,1005.35 1094.25,1005.13 1094.68,1004.9 1095.1,1004.66 1095.52,1004.41 1095.93,1004.15 1096.33,1003.88 1096.72,1003.59 1097.11,1003.3 1097.49,1002.99 1097.86,1002.68 1098.22,1002.35 1098.57,1002.02 1098.91,1001.67 1099.24,1001.32 1099.57,1000.96 1099.88,1000.59 1100.18,1000.21 1100.47,999.819 1100.75,999.423 1101.02,999.019 1101.28,998.608 1101.53,998.19 1101.77,997.766 1101.99,997.335 1102.2,996.899 1102.4,996.456 1102.59,996.009 1102.77,995.556 1102.93,995.098 1103.08,994.637 1103.22,994.171 1103.34,993.702 1103.46,993.23 1103.56,992.754 1103.64,992.276 1103.72,991.796 1103.77,991.314 1103.82,990.831 1103.85,990.346 1103.87,989.861 1103.88,989.375 " />
<polyline fill="none" vector-effect="none" points="1103.88,284.375 1103.87,283.89 1103.85,283.405 1103.82,282.92 1103.77,282.437 1103.72,281.955 1103.64,281.475 1103.56,280.997 1103.46,280.521 1103.34,280.049 1103.22,279.58 1103.08,279.114 1102.93,278.652 1102.77,278.195 1102.59,277.742 1102.4,277.295 1102.2,276.852 1101.99,276.416 1101.77,275.985 1101.53,275.561 1101.28,275.143 1101.02,274.732 1100.75,274.328 1100.47,273.932 1100.18,273.544 1099.88,273.164 1099.57,272.793 1099.24,272.43 1098.91,272.076 1098.57,271.732 1098.22,271.397 1097.86,271.071 1097.49,270.756 1097.11,270.451 1096.72,270.156 1096.33,269.873 1095.93,269.6 1095.52,269.338 1095.1,269.087 1094.68,268.849 1094.25,268.621 1093.81,268.406 1093.37,268.202 1092.93,268.011 1092.48,267.832 1092.02,267.666 1091.56,267.512 1091.09,267.371 1090.63,267.242 1090.15,267.127 1089.68,267.025 1089.2,266.935 1088.72,266.859 1088.24,266.796 1087.76,266.746 1087.27,266.709 1086.79,266.686 1086.3,266.676 1085.82,266.679 1085.33,266.696 1084.85,266.726 1084.36,266.769 1083.88,266.826 1083.4,266.895 1082.92,266.978 1082.45,267.074 1081.97,267.183 1081.5,267.305 1081.04,267.44 1080.57,267.587 1080.12,267.748 1079.66,267.92 1079.21,268.105 1078.77,268.303 1078.33,268.512 1077.9,268.733 1077.47,268.967 1077.05,269.211 1076.64,269.467 1076.23,269.735 1075.84,270.013 1075.45,270.302 1075.06,270.602 1074.69,270.912 1074.33,271.233 1073.97,271.563 1073.62,271.903 1073.29,272.252 1072.96,272.61 1072.64,272.977 1072.33,273.353 1072.04,273.737 1071.75,274.129 1071.47,274.529 1071.21,274.936 1070.96,275.351 1070.71,275.772 1070.48,276.2 1070.26,276.633 1070.06,277.073 1069.86,277.518 1069.68,277.968 1069.51,278.423 1069.36,278.883 1069.21,279.346 1069.08,279.814 1068.96,280.285 1068.85,280.759 1068.76,281.236 1068.68,281.715 1068.62,282.196 1068.56,282.678 1068.52,283.162 1068.5,283.647 1068.48,284.133 1068.48,284.618 1068.5,285.104 1068.52,285.589 1068.56,286.073 1068.62,286.555 1068.68,287.036 1068.76,287.515 1068.85,287.992 1068.96,288.466 1069.08,288.937 1069.21,289.404 1069.36,289.868 1069.51,290.328 1069.68,290.783 1069.86,291.233 1070.06,291.678 1070.26,292.118 1070.48,292.551 1070.71,292.979 1070.96,293.4 1071.21,293.814 1071.47,294.222 1071.75,294.621 1072.04,295.014 1072.33,295.398 1072.64,295.773 1072.96,296.141 1073.29,296.499 1073.62,296.848 1073.97,297.188 1074.33,297.518 1074.69,297.839 1075.06,298.149 1075.45,298.449 1075.84,298.738 1076.23,299.016 1076.64,299.284 1077.05,299.54 1077.47,299.784 1077.9,300.018 1078.33,300.239 1078.77,300.448 1079.21,300.646 1079.66,300.831 1080.12,301.003 1080.57,301.164 1081.04,301.311 1081.5,301.446 1081.97,301.568 1082.45,301.677 1082.92,301.773 1083.4,301.856 1083.88,301.925 1084.36,301.982 1084.85,302.025 1085.33,302.055 1085.82,302.072 1086.3,302.075 1086.79,302.065 1087.27,302.042 1087.76,302.005 1088.24,301.955 1088.72,301.892 1089.2,301.816 1089.68,301.726 1090.15,301.624 1090.63,301.508 1091.09,301.38 1091.56,301.239 1092.02,301.085 1092.48,300.919 1092.93,300.74 1093.37,300.549 1093.81,300.345 1094.25,300.13 1094.68,299.902 1095.1,299.663 1095.52,299.413 1095.93,299.151 1096.33,298.878 1096.72,298.595 1097.11,298.3 1097.49,297.995 1097.86,297.68 1098.22,297.354 1098.57,297.019 1098.91,296.675 1099.24,296.321 1099.57,295.958 1099.88,295.587 1100.18,295.207 1100.47,294.819 1100.75,294.423 1101.02,294.019 1101.28,293.608 1101.53,293.19 1101.77,292.766 1101.99,292.335 1102.2,291.899 1102.4,291.456 1102.59,291.009 1102.77,290.556 1102.93,290.098 1103.08,289.637 1103.22,289.171 1103.34,288.702 1103.46,288.23 1103.56,287.754 1103.64,287.276 1103.72,286.796 1103.77,286.314 1103.82,285.831 1103.85,285.346 1103.87,284.861 1103.88,284.375 " />
<polyline fill="none" vector-effect="none" points="947.776,755.365 947.769,754.879 947.749,754.394 947.716,753.909 947.669,753.426 947.609,752.944 947.536,752.464 947.45,751.986 947.351,751.511 947.239,751.038 947.114,750.569 946.976,750.103 946.825,749.642 946.662,749.184 946.486,748.732 946.298,748.284 946.097,747.842 945.885,747.405 945.661,746.974 945.425,746.55 945.177,746.132 944.918,745.721 944.648,745.318 944.367,744.922 944.075,744.533 943.772,744.154 943.46,743.782 943.137,743.419 942.804,743.065 942.462,742.721 942.111,742.386 941.75,742.06 941.381,741.745 941.003,741.44 940.617,741.146 940.222,740.862 939.821,740.589 939.412,740.327 938.996,740.077 938.573,739.838 938.144,739.61 937.709,739.395 937.268,739.192 936.821,739 936.37,738.822 935.913,738.655 935.453,738.501 934.988,738.36 934.52,738.232 934.048,738.116 933.573,738.014 933.096,737.924 932.617,737.848 932.135,737.785 931.652,737.735 931.168,737.698 930.683,737.675 930.197,737.665 929.712,737.668 929.226,737.685 928.741,737.715 928.258,737.758 927.775,737.815 927.295,737.884 926.816,737.967 926.34,738.063 925.867,738.172 925.397,738.294 924.93,738.429 924.468,738.577 924.009,738.737 923.555,738.909 923.106,739.094 922.663,739.292 922.225,739.501 921.792,739.723 921.366,739.956 920.947,740.2 920.534,740.457 920.129,740.724 919.731,741.002 919.341,741.292 918.959,741.591 918.585,741.902 918.22,742.222 917.864,742.552 917.517,742.892 917.18,743.241 916.852,743.599 916.534,743.967 916.226,744.342 915.929,744.727 915.643,745.119 915.367,745.518 915.103,745.926 914.849,746.34 914.607,746.761 914.377,747.189 914.159,747.622 913.952,748.062 913.758,748.507 913.576,748.957 913.407,749.412 913.25,749.872 913.105,750.336 912.974,750.803 912.855,751.274 912.749,751.748 912.656,752.225 912.577,752.704 912.51,753.185 912.457,753.668 912.417,754.152 912.391,754.636 912.377,755.122 912.377,755.607 912.391,756.093 912.417,756.578 912.457,757.062 912.51,757.545 912.577,758.026 912.656,758.505 912.749,758.981 912.855,759.455 912.974,759.926 913.105,760.394 913.25,760.857 913.407,761.317 913.576,761.772 913.758,762.222 913.952,762.667 914.159,763.107 914.377,763.541 914.607,763.968 914.849,764.389 915.103,764.804 915.367,765.211 915.643,765.611 915.929,766.003 916.226,766.387 916.534,766.763 916.852,767.13 917.18,767.488 917.517,767.837 917.864,768.177 918.22,768.507 918.585,768.828 918.959,769.138 919.341,769.438 919.731,769.727 920.129,770.005 920.534,770.273 920.947,770.529 921.366,770.774 921.792,771.007 922.225,771.228 922.663,771.438 923.106,771.635 923.555,771.82 924.009,771.993 924.468,772.153 924.93,772.3 925.397,772.435 925.867,772.557 926.34,772.666 926.816,772.762 927.295,772.845 927.775,772.915 928.258,772.971 928.741,773.014 929.226,773.044 929.712,773.061 930.197,773.064 930.683,773.054 931.168,773.031 931.652,772.994 932.135,772.944 932.617,772.881 933.096,772.805 933.573,772.716 934.048,772.613 934.52,772.498 934.988,772.369 935.453,772.228 935.913,772.074 936.37,771.908 936.821,771.729 937.268,771.538 937.709,771.334 938.144,771.119 938.573,770.892 938.996,770.653 939.412,770.402 939.821,770.14 940.222,769.868 940.617,769.584 941.003,769.289 941.381,768.984 941.75,768.669 942.111,768.344 942.462,768.009 942.804,767.664 943.137,767.31 943.46,766.947 943.772,766.576 944.075,766.196 944.367,765.808 944.648,765.412 944.918,765.008 945.177,764.597 945.425,764.18 945.661,763.755 945.885,763.324 946.097,762.888 946.298,762.445 946.486,761.998 946.662,761.545 946.825,761.088 946.976,760.626 947.114,760.16 947.239,759.691 947.351,759.219 947.45,758.743 947.536,758.265 947.609,757.785 947.669,757.303 947.716,756.82 947.749,756.335 947.769,755.85 947.776,755.365 " />
<polyline fill="none" vector-effect="none" points="306.181,1049.38 1086.18,1049.38 " />
<polyline fill="none" vector-effect="none" points="1146.18,284.375 1146.18,989.375 " />
<polyline fill="none" vector-effect="none" points="306.181,224.375 1086.18,224.375 " />
<polyline fill="none" vector-effect="none" points="246.181,284.375 246.181,989.375 " />
</g>

<g fill="none" stroke="#000000" stroke-opacity="1" stroke-width="1" stroke-linecap="square" stroke-linejoin="bevel" transform="matrix(1,0,0,1,0,0)"
font-family="Arial" font-size="12" font-weight="400" font-style="normal" 
>
</g>
</g>
</svg>
