<?xml version="1.0" encoding="UTF-8" standalone="no"?>
<svg width="279.4mm" height="215.9mm"
 viewBox="0 0 3300 2550"
 xmlns="http://www.w3.org/2000/svg" xmlns:xlink="http://www.w3.org/1999/xlink"  version="1.2" baseProfile="tiny">
<defs>
</defs>
<g fill="none" stroke="black" stroke-width="1" fill-rule="evenodd" stroke-linecap="square" stroke-linejoin="bevel" >

<g fill="#ffffff" fill-opacity="1" stroke="none" transform="matrix(1,0,0,1,0,0)"
font-family="Arial" font-size="12" font-weight="400" font-style="normal" 
>
<rect x="0" y="0" width="3300" height="2550"/>
</g>

<g fill="none" stroke="#000000" stroke-opacity="1" stroke-width="1" stroke-linecap="square" stroke-linejoin="bevel" transform="matrix(1,0,0,1,0,0)"
font-family="Arial" font-size="12" font-weight="400" font-style="normal" 
>
</g>

<g fill="#000000" fill-opacity="1" stroke="#000000" stroke-opacity="1" stroke-width="1" stroke-linecap="butt" stroke-linejoin="miter" stroke-miterlimit="2" transform="matrix(1,0,0,1,0,0)"
font-family="Arial" font-size="12" font-weight="400" font-style="normal" 
>
</g>

<g fill="#000000" fill-opacity="1" stroke="#000000" stroke-opacity="1" stroke-width="5" stroke-linecap="round" stroke-linejoin="bevel" transform="matrix(1,0,0,1,0,0)"
font-family="Arial" font-size="12" font-weight="400" font-style="normal" 
>
<polyline fill="none" vector-effect="none" points="560.684,816.942 434.684,816.942 " />
<polyline fill="none" vector-effect="none" points="434.684,942.942 434.684,816.942 " />
<polyline fill="none" vector-effect="none" points="560.684,942.942 434.684,942.942 " />
<polyline fill="none" vector-effect="none" points="560.684,942.942 560.684,816.942 " />
<polyline fill="none" vector-effect="none" points="427.109,540.423 577.109,540.423 " />
<polyline fill="none" vector-effect="none" points="577.109,390.423 577.109,540.423 " />
<polyline fill="none" vector-effect="none" points="427.109,390.423 577.109,390.423 " />
<polyline fill="none" vector-effect="none" points="427.109,390.423 427.109,540.423 " />
<polyline fill="none" vector-effect="none" points="1202.54,310.389 1202.53,308.916 1202.47,307.445 1202.38,305.975 1202.25,304.508 1202.09,303.044 1201.89,301.585 1201.66,300.131 1201.39,298.683 1201.09,297.243 1200.75,295.81 1200.37,294.386 1199.96,292.972 1199.52,291.568 1199.04,290.175 1198.52,288.795 1197.98,287.428 1197.4,286.074 1196.78,284.735 1196.14,283.412 1195.46,282.105 1194.75,280.815 1194.01,279.543 1193.23,278.289 1192.43,277.054 1191.6,275.84 1190.74,274.647 1189.84,273.475 1188.92,272.325 1187.98,271.198 1187,270.095 1186,269.016 1184.97,267.962 1183.92,266.934 1182.84,265.932 1181.73,264.956 1180.61,264.008 1179.46,263.088 1178.29,262.196 1177.09,261.334 1175.88,260.501 1174.64,259.697 1173.39,258.925 1172.12,258.183 1170.83,257.473 1169.52,256.795 1168.2,256.149 1166.86,255.536 1165.5,254.956 1164.14,254.409 1162.76,253.896 1161.36,253.417 1159.96,252.972 1158.55,252.562 1157.12,252.187 1155.69,251.847 1154.25,251.542 1152.8,251.272 1151.35,251.038 1149.89,250.84 1148.42,250.678 1146.96,250.551 1145.49,250.461 1144.02,250.407 1142.54,250.389 " />
<polyline fill="none" vector-effect="none" points="1202.54,310.389 1202.54,1015.39 " />
<polyline fill="none" vector-effect="none" points="1142.54,1075.39 1144.02,1075.37 1145.49,1075.32 1146.96,1075.23 1148.42,1075.1 1149.89,1074.94 1151.35,1074.74 1152.8,1074.51 1154.25,1074.24 1155.69,1073.93 1157.12,1073.59 1158.55,1073.22 1159.96,1072.81 1161.36,1072.36 1162.76,1071.88 1164.14,1071.37 1165.5,1070.82 1166.86,1070.24 1168.2,1069.63 1169.52,1068.98 1170.83,1068.3 1172.12,1067.59 1173.39,1066.85 1174.64,1066.08 1175.88,1065.28 1177.09,1064.44 1178.29,1063.58 1179.46,1062.69 1180.61,1061.77 1181.73,1060.82 1182.84,1059.85 1183.92,1058.84 1184.97,1057.82 1186,1056.76 1187,1055.68 1187.98,1054.58 1188.92,1053.45 1189.84,1052.3 1190.74,1051.13 1191.6,1049.94 1192.43,1048.72 1193.23,1047.49 1194.01,1046.23 1194.75,1044.96 1195.46,1043.67 1196.14,1042.37 1196.78,1041.04 1197.4,1039.7 1197.98,1038.35 1198.52,1036.98 1199.04,1035.6 1199.52,1034.21 1199.96,1032.81 1200.37,1031.39 1200.75,1029.97 1201.09,1028.53 1201.39,1027.09 1201.66,1025.65 1201.89,1024.19 1202.09,1022.73 1202.25,1021.27 1202.38,1019.8 1202.47,1018.33 1202.53,1016.86 1202.54,1015.39 " />
<polyline fill="none" vector-effect="none" points="362.543,1075.39 1142.54,1075.39 " />
<polyline fill="none" vector-effect="none" points="302.543,1015.39 302.562,1016.86 302.616,1018.33 302.706,1019.8 302.832,1021.27 302.995,1022.73 303.193,1024.19 303.427,1025.65 303.696,1027.09 304.001,1028.53 304.342,1029.97 304.717,1031.39 305.127,1032.81 305.572,1034.21 306.051,1035.6 306.564,1036.98 307.111,1038.35 307.691,1039.7 308.304,1041.04 308.95,1042.37 309.628,1043.67 310.338,1044.96 311.08,1046.23 311.852,1047.49 312.655,1048.72 313.488,1049.94 314.351,1051.13 315.243,1052.3 316.163,1053.45 317.111,1054.58 318.086,1055.68 319.089,1056.76 320.117,1057.82 321.171,1058.84 322.25,1059.85 323.353,1060.82 324.48,1061.77 325.63,1062.69 326.802,1063.58 327.995,1064.44 329.209,1065.28 330.444,1066.08 331.697,1066.85 332.97,1067.59 334.26,1068.3 335.567,1068.98 336.89,1069.63 338.229,1070.24 339.582,1070.82 340.95,1071.37 342.33,1071.88 343.723,1072.36 345.126,1072.81 346.541,1073.22 347.965,1073.59 349.397,1073.93 350.838,1074.24 352.286,1074.51 353.74,1074.74 355.199,1074.94 356.662,1075.1 358.13,1075.23 359.599,1075.32 361.071,1075.37 362.543,1075.39 " />
<polyline fill="none" vector-effect="none" points="302.543,310.389 302.543,1015.39 " />
<polyline fill="none" vector-effect="none" points="362.543,250.389 361.071,250.407 359.599,250.461 358.13,250.551 356.662,250.678 355.199,250.84 353.74,251.038 352.286,251.272 350.838,251.542 349.397,251.847 347.965,252.187 346.541,252.562 345.126,252.972 343.723,253.417 342.33,253.896 340.95,254.409 339.582,254.956 338.229,255.536 336.89,256.149 335.567,256.795 334.26,257.473 332.97,258.183 331.697,258.925 330.444,259.697 329.209,260.501 327.995,261.334 326.802,262.196 325.63,263.088 324.48,264.008 323.353,264.956 322.25,265.932 321.171,266.934 320.117,267.962 319.089,269.016 318.086,270.095 317.111,271.198 316.163,272.325 315.243,273.475 314.351,274.647 313.488,275.84 312.655,277.054 311.852,278.289 311.08,279.543 310.338,280.815 309.628,282.105 308.95,283.412 308.304,284.735 307.691,286.074 307.111,287.428 306.564,288.795 306.051,290.175 305.572,291.568 305.127,292.972 304.717,294.386 304.342,295.81 304.001,297.243 303.696,298.683 303.427,300.131 303.193,301.585 302.995,303.044 302.832,304.508 302.706,305.975 302.616,307.445 302.562,308.916 302.543,310.389 " />
<polyline fill="none" vector-effect="none" points="362.543,250.389 1142.54,250.389 " />
<polyline fill="none" vector-effect="none" points="1010.47,662.889 1010.42,658.747 1010.26,654.609 1010.01,650.475 1009.65,646.348 1009.2,642.232 1008.64,638.128 1007.98,634.039 1007.22,629.967 1006.37,625.915 1005.41,621.886 1004.35,617.881 1003.2,613.903 1001.95,609.955 1000.6,606.039 999.16,602.156 997.622,598.311 995.99,594.504 994.265,590.739 992.449,587.017 990.541,583.341 988.544,579.712 986.459,576.134 984.286,572.608 982.028,569.136 979.685,565.721 977.259,562.364 974.751,559.068 972.163,555.835 969.496,552.666 966.753,549.563 963.934,546.529 961.042,543.564 958.077,540.672 955.043,537.853 951.94,535.11 948.771,532.443 945.538,529.855 942.241,527.347 938.885,524.921 935.47,522.578 931.998,520.32 928.472,518.147 924.894,516.062 921.265,514.064 917.589,512.157 913.867,510.341 910.102,508.616 906.295,506.984 902.45,505.446 898.567,504.003 894.651,502.656 890.703,501.405 886.725,500.252 882.72,499.196 878.691,498.239 874.639,497.381 870.567,496.623 866.478,495.965 862.374,495.408 858.258,494.951 854.131,494.596 849.997,494.342 845.859,494.19 841.717,494.139 837.576,494.19 833.437,494.342 829.303,494.596 825.177,494.951 821.06,495.408 816.956,495.965 812.867,496.623 808.796,497.381 804.744,498.239 800.714,499.196 796.709,500.252 792.732,501.405 788.783,502.656 784.867,504.003 780.985,505.446 777.139,506.984 773.333,508.616 769.567,510.341 765.845,512.157 762.169,514.064 758.541,516.062 754.962,518.147 751.436,520.32 747.965,522.578 744.55,524.921 741.193,527.347 737.897,529.855 734.663,532.443 731.494,535.11 728.392,537.853 725.357,540.672 722.393,543.564 719.501,546.529 716.682,549.563 713.938,552.666 711.272,555.835 708.684,559.068 706.176,562.364 703.75,565.721 701.407,569.136 699.148,572.608 696.976,576.134 694.89,579.712 692.893,583.341 690.986,587.017 689.169,590.739 687.444,594.504 685.813,598.311 684.275,602.156 682.832,606.039 681.484,609.955 680.234,613.903 679.08,617.881 678.024,621.886 677.067,625.915 676.21,629.967 675.452,634.039 674.794,638.128 674.236,642.232 673.78,646.348 673.424,650.475 673.171,654.609 673.018,658.747 672.967,662.889 673.018,667.03 673.171,671.169 673.424,675.303 673.78,679.429 674.236,683.546 674.794,687.649 675.452,691.739 676.21,695.81 677.067,699.862 678.024,703.892 679.08,707.896 680.234,711.874 681.484,715.823 682.832,719.739 684.275,723.621 685.813,727.467 687.444,731.273 689.169,735.039 690.986,738.761 692.893,742.437 694.89,746.065 696.976,749.644 699.148,753.17 701.407,756.641 703.75,760.056 706.176,763.413 708.684,766.709 711.272,769.943 713.938,773.112 716.682,776.214 719.501,779.249 722.393,782.213 725.357,785.105 728.392,787.924 731.494,790.668 734.663,793.334 737.897,795.922 741.193,798.43 744.55,800.856 747.965,803.199 751.436,805.458 754.962,807.63 758.541,809.716 762.169,811.713 765.845,813.62 769.567,815.437 773.333,817.162 777.139,818.793 780.985,820.331 784.867,821.774 788.783,823.122 792.732,824.372 796.709,825.526 800.714,826.581 804.744,827.538 808.796,828.396 812.867,829.154 816.956,829.812 821.06,830.37 825.177,830.826 829.303,831.181 833.437,831.435 837.576,831.588 841.717,831.639 845.859,831.588 849.997,831.435 854.131,831.181 858.258,830.826 862.374,830.37 866.478,829.812 870.567,829.154 874.639,828.396 878.691,827.538 882.72,826.581 886.725,825.526 890.703,824.372 894.651,823.122 898.567,821.774 902.45,820.331 906.295,818.793 910.102,817.162 913.867,815.437 917.589,813.62 921.265,811.713 924.894,809.716 928.472,807.63 931.998,805.458 935.47,803.199 938.885,800.856 942.241,798.43 945.538,795.922 948.771,793.334 951.94,790.668 955.043,787.924 958.077,785.105 961.042,782.213 963.934,779.249 966.753,776.214 969.496,773.112 972.163,769.943 974.751,766.709 977.259,763.413 979.685,760.056 982.028,756.641 984.286,753.17 986.459,749.644 988.544,746.065 990.541,742.437 992.449,738.761 994.265,735.039 995.99,731.273 997.622,727.467 999.16,723.621 1000.6,719.739 1001.95,715.823 1003.2,711.874 1004.35,707.896 1005.41,703.892 1006.37,699.862 1007.22,695.81 1007.98,691.739 1008.64,687.649 1009.2,683.546 1009.65,679.429 1010.01,675.303 1010.26,671.169 1010.42,667.03 1010.47,662.889 " />
<polyline fill="none" vector-effect="none" points="344.843,310.389 344.85,309.903 344.87,309.418 344.903,308.933 344.95,308.45 345.01,307.968 345.083,307.488 345.169,307.01 345.268,306.535 345.38,306.062 345.506,305.593 345.644,305.127 345.794,304.666 345.958,304.208 346.133,303.756 346.321,303.308 346.522,302.866 346.734,302.429 346.959,301.998 347.195,301.574 347.442,301.156 347.701,300.745 347.971,300.342 348.252,299.946 348.544,299.558 348.847,299.178 349.159,298.806 349.482,298.443 349.815,298.089 350.157,297.745 350.509,297.41 350.869,297.084 351.239,296.769 351.617,296.464 352.003,296.17 352.397,295.886 352.798,295.613 353.207,295.351 353.623,295.101 354.046,294.862 354.475,294.634 354.911,294.419 355.352,294.216 355.798,294.024 356.25,293.846 356.706,293.679 357.166,293.525 357.631,293.384 358.099,293.256 358.571,293.14 359.046,293.038 359.523,292.948 360.003,292.872 360.484,292.809 360.967,292.759 361.451,292.722 361.937,292.699 362.422,292.689 362.908,292.692 363.393,292.709 363.878,292.739 364.361,292.782 364.844,292.839 365.324,292.909 365.803,292.991 366.279,293.087 366.752,293.196 367.222,293.318 367.689,293.453 368.151,293.601 368.61,293.761 369.064,293.933 369.513,294.119 369.957,294.316 370.395,294.525 370.827,294.747 371.253,294.98 371.672,295.224 372.085,295.481 372.49,295.748 372.888,296.026 373.278,296.316 373.66,296.615 374.034,296.926 374.399,297.246 374.755,297.576 375.102,297.916 375.44,298.265 375.767,298.624 376.085,298.991 376.393,299.367 376.69,299.751 376.976,300.143 377.252,300.543 377.517,300.95 377.77,301.364 378.012,301.785 378.242,302.213 378.46,302.647 378.667,303.086 378.861,303.531 379.043,303.981 379.213,304.436 379.37,304.896 379.514,305.36 379.646,305.827 379.764,306.298 379.87,306.772 379.963,307.249 380.042,307.728 380.109,308.209 380.162,308.692 380.202,309.176 380.228,309.66 380.242,310.146 380.242,310.632 380.228,311.117 380.202,311.602 380.162,312.086 380.109,312.569 380.042,313.05 379.963,313.529 379.87,314.005 379.764,314.479 379.646,314.95 379.514,315.418 379.37,315.881 379.213,316.341 379.043,316.796 378.861,317.246 378.667,317.691 378.46,318.131 378.242,318.565 378.012,318.992 377.77,319.413 377.517,319.828 377.252,320.235 376.976,320.635 376.69,321.027 376.393,321.411 376.085,321.787 375.767,322.154 375.44,322.512 375.102,322.862 374.755,323.201 374.399,323.532 374.034,323.852 373.66,324.162 373.278,324.462 372.888,324.751 372.49,325.029 372.085,325.297 371.672,325.553 371.253,325.798 370.827,326.031 370.395,326.252 369.957,326.462 369.513,326.659 369.064,326.844 368.61,327.017 368.151,327.177 367.689,327.324 367.222,327.459 366.752,327.581 366.279,327.69 365.803,327.786 365.324,327.869 364.844,327.939 364.361,327.995 363.878,328.038 363.393,328.068 362.908,328.085 362.422,328.088 361.937,328.078 361.451,328.055 360.967,328.018 360.484,327.969 360.003,327.905 359.523,327.829 359.046,327.74 358.571,327.637 358.099,327.522 357.631,327.393 357.166,327.252 356.706,327.098 356.25,326.932 355.798,326.753 355.352,326.562 354.911,326.358 354.475,326.143 354.046,325.916 353.623,325.677 353.207,325.426 352.798,325.164 352.397,324.892 352.003,324.608 351.617,324.313 351.239,324.008 350.869,323.693 350.509,323.368 350.157,323.033 349.815,322.688 349.482,322.334 349.159,321.971 348.847,321.6 348.544,321.22 348.252,320.832 347.971,320.436 347.701,320.032 347.442,319.621 347.195,319.204 346.959,318.779 346.734,318.349 346.522,317.912 346.321,317.469 346.133,317.022 345.958,316.569 345.794,316.112 345.644,315.65 345.506,315.184 345.38,314.715 345.268,314.243 345.169,313.767 345.083,313.289 345.01,312.809 344.95,312.327 344.903,311.844 344.87,311.36 344.85,310.874 344.843,310.389 " />
<polyline fill="none" vector-effect="none" points="344.843,1015.39 344.85,1014.9 344.87,1014.42 344.903,1013.93 344.95,1013.45 345.01,1012.97 345.083,1012.49 345.169,1012.01 345.268,1011.53 345.38,1011.06 345.506,1010.59 345.644,1010.13 345.794,1009.67 345.958,1009.21 346.133,1008.76 346.321,1008.31 346.522,1007.87 346.734,1007.43 346.959,1007 347.195,1006.57 347.442,1006.16 347.701,1005.75 347.971,1005.34 348.252,1004.95 348.544,1004.56 348.847,1004.18 349.159,1003.81 349.482,1003.44 349.815,1003.09 350.157,1002.74 350.509,1002.41 350.869,1002.08 351.239,1001.77 351.617,1001.46 352.003,1001.17 352.397,1000.89 352.798,1000.61 353.207,1000.35 353.623,1000.1 354.046,999.862 354.475,999.634 354.911,999.419 355.352,999.216 355.798,999.024 356.25,998.846 356.706,998.679 357.166,998.525 357.631,998.384 358.099,998.256 358.571,998.14 359.046,998.038 359.523,997.948 360.003,997.872 360.484,997.809 360.967,997.759 361.451,997.722 361.937,997.699 362.422,997.689 362.908,997.692 363.393,997.709 363.878,997.739 364.361,997.782 364.844,997.839 365.324,997.909 365.803,997.991 366.279,998.087 366.752,998.196 367.222,998.318 367.689,998.453 368.151,998.601 368.61,998.761 369.064,998.933 369.513,999.119 369.957,999.316 370.395,999.525 370.827,999.747 371.253,999.98 371.672,1000.22 372.085,1000.48 372.49,1000.75 372.888,1001.03 373.278,1001.32 373.66,1001.62 374.034,1001.93 374.399,1002.25 374.755,1002.58 375.102,1002.92 375.44,1003.27 375.767,1003.62 376.085,1003.99 376.393,1004.37 376.69,1004.75 376.976,1005.14 377.252,1005.54 377.517,1005.95 377.77,1006.36 378.012,1006.79 378.242,1007.21 378.46,1007.65 378.667,1008.09 378.861,1008.53 379.043,1008.98 379.213,1009.44 379.37,1009.9 379.514,1010.36 379.646,1010.83 379.764,1011.3 379.87,1011.77 379.963,1012.25 380.042,1012.73 380.109,1013.21 380.162,1013.69 380.202,1014.18 380.228,1014.66 380.242,1015.15 380.242,1015.63 380.228,1016.12 380.202,1016.6 380.162,1017.09 380.109,1017.57 380.042,1018.05 379.963,1018.53 379.87,1019.01 379.764,1019.48 379.646,1019.95 379.514,1020.42 379.37,1020.88 379.213,1021.34 379.043,1021.8 378.861,1022.25 378.667,1022.69 378.46,1023.13 378.242,1023.56 378.012,1023.99 377.77,1024.41 377.517,1024.83 377.252,1025.23 376.976,1025.63 376.69,1026.03 376.393,1026.41 376.085,1026.79 375.767,1027.15 375.44,1027.51 375.102,1027.86 374.755,1028.2 374.399,1028.53 374.034,1028.85 373.66,1029.16 373.278,1029.46 372.888,1029.75 372.49,1030.03 372.085,1030.3 371.672,1030.55 371.253,1030.8 370.827,1031.03 370.395,1031.25 369.957,1031.46 369.513,1031.66 369.064,1031.84 368.61,1032.02 368.151,1032.18 367.689,1032.32 367.222,1032.46 366.752,1032.58 366.279,1032.69 365.803,1032.79 365.324,1032.87 364.844,1032.94 364.361,1033 363.878,1033.04 363.393,1033.07 362.908,1033.08 362.422,1033.09 361.937,1033.08 361.451,1033.05 360.967,1033.02 360.484,1032.97 360.003,1032.91 359.523,1032.83 359.046,1032.74 358.571,1032.64 358.099,1032.52 357.631,1032.39 357.166,1032.25 356.706,1032.1 356.25,1031.93 355.798,1031.75 355.352,1031.56 354.911,1031.36 354.475,1031.14 354.046,1030.92 353.623,1030.68 353.207,1030.43 352.798,1030.16 352.397,1029.89 352.003,1029.61 351.617,1029.31 351.239,1029.01 350.869,1028.69 350.509,1028.37 350.157,1028.03 349.815,1027.69 349.482,1027.33 349.159,1026.97 348.847,1026.6 348.544,1026.22 348.252,1025.83 347.971,1025.44 347.701,1025.03 347.442,1024.62 347.195,1024.2 346.959,1023.78 346.734,1023.35 346.522,1022.91 346.321,1022.47 346.133,1022.02 345.958,1021.57 345.794,1021.11 345.644,1020.65 345.506,1020.18 345.38,1019.72 345.268,1019.24 345.169,1018.77 345.083,1018.29 345.01,1017.81 344.95,1017.33 344.903,1016.84 344.87,1016.36 344.85,1015.87 344.843,1015.39 " />
<polyline fill="none" vector-effect="none" points="1124.84,1015.39 1124.85,1014.9 1124.87,1014.42 1124.9,1013.93 1124.95,1013.45 1125.01,1012.97 1125.08,1012.49 1125.17,1012.01 1125.27,1011.53 1125.38,1011.06 1125.51,1010.59 1125.64,1010.13 1125.79,1009.67 1125.96,1009.21 1126.13,1008.76 1126.32,1008.31 1126.52,1007.87 1126.73,1007.43 1126.96,1007 1127.19,1006.57 1127.44,1006.16 1127.7,1005.75 1127.97,1005.34 1128.25,1004.95 1128.54,1004.56 1128.85,1004.18 1129.16,1003.81 1129.48,1003.44 1129.81,1003.09 1130.16,1002.74 1130.51,1002.41 1130.87,1002.08 1131.24,1001.77 1131.62,1001.46 1132,1001.17 1132.4,1000.89 1132.8,1000.61 1133.21,1000.35 1133.62,1000.1 1134.05,999.862 1134.48,999.634 1134.91,999.419 1135.35,999.216 1135.8,999.024 1136.25,998.846 1136.71,998.679 1137.17,998.525 1137.63,998.384 1138.1,998.256 1138.57,998.14 1139.05,998.038 1139.52,997.948 1140,997.872 1140.48,997.809 1140.97,997.759 1141.45,997.722 1141.94,997.699 1142.42,997.689 1142.91,997.692 1143.39,997.709 1143.88,997.739 1144.36,997.782 1144.84,997.839 1145.32,997.909 1145.8,997.991 1146.28,998.087 1146.75,998.196 1147.22,998.318 1147.69,998.453 1148.15,998.601 1148.61,998.761 1149.06,998.933 1149.51,999.119 1149.96,999.316 1150.39,999.525 1150.83,999.747 1151.25,999.98 1151.67,1000.22 1152.08,1000.48 1152.49,1000.75 1152.89,1001.03 1153.28,1001.32 1153.66,1001.62 1154.03,1001.93 1154.4,1002.25 1154.76,1002.58 1155.1,1002.92 1155.44,1003.27 1155.77,1003.62 1156.09,1003.99 1156.39,1004.37 1156.69,1004.75 1156.98,1005.14 1157.25,1005.54 1157.52,1005.95 1157.77,1006.36 1158.01,1006.79 1158.24,1007.21 1158.46,1007.65 1158.67,1008.09 1158.86,1008.53 1159.04,1008.98 1159.21,1009.44 1159.37,1009.9 1159.51,1010.36 1159.65,1010.83 1159.76,1011.3 1159.87,1011.77 1159.96,1012.25 1160.04,1012.73 1160.11,1013.21 1160.16,1013.69 1160.2,1014.18 1160.23,1014.66 1160.24,1015.15 1160.24,1015.63 1160.23,1016.12 1160.2,1016.6 1160.16,1017.09 1160.11,1017.57 1160.04,1018.05 1159.96,1018.53 1159.87,1019.01 1159.76,1019.48 1159.65,1019.95 1159.51,1020.42 1159.37,1020.88 1159.21,1021.34 1159.04,1021.8 1158.86,1022.25 1158.67,1022.69 1158.46,1023.13 1158.24,1023.56 1158.01,1023.99 1157.77,1024.41 1157.52,1024.83 1157.25,1025.23 1156.98,1025.63 1156.69,1026.03 1156.39,1026.41 1156.09,1026.79 1155.77,1027.15 1155.44,1027.51 1155.1,1027.86 1154.76,1028.2 1154.4,1028.53 1154.03,1028.85 1153.66,1029.16 1153.28,1029.46 1152.89,1029.75 1152.49,1030.03 1152.08,1030.3 1151.67,1030.55 1151.25,1030.8 1150.83,1031.03 1150.39,1031.25 1149.96,1031.46 1149.51,1031.66 1149.06,1031.84 1148.61,1032.02 1148.15,1032.18 1147.69,1032.32 1147.22,1032.46 1146.75,1032.58 1146.28,1032.69 1145.8,1032.79 1145.32,1032.87 1144.84,1032.94 1144.36,1033 1143.88,1033.04 1143.39,1033.07 1142.91,1033.08 1142.42,1033.09 1141.94,1033.08 1141.45,1033.05 1140.97,1033.02 1140.48,1032.97 1140,1032.91 1139.52,1032.83 1139.05,1032.74 1138.57,1032.64 1138.1,1032.52 1137.63,1032.39 1137.17,1032.25 1136.71,1032.1 1136.25,1031.93 1135.8,1031.75 1135.35,1031.56 1134.91,1031.36 1134.48,1031.14 1134.05,1030.92 1133.62,1030.68 1133.21,1030.43 1132.8,1030.16 1132.4,1029.89 1132,1029.61 1131.62,1029.31 1131.24,1029.01 1130.87,1028.69 1130.51,1028.37 1130.16,1028.03 1129.81,1027.69 1129.48,1027.33 1129.16,1026.97 1128.85,1026.6 1128.54,1026.22 1128.25,1025.83 1127.97,1025.44 1127.7,1025.03 1127.44,1024.62 1127.19,1024.2 1126.96,1023.78 1126.73,1023.35 1126.52,1022.91 1126.32,1022.47 1126.13,1022.02 1125.96,1021.57 1125.79,1021.11 1125.64,1020.65 1125.51,1020.18 1125.38,1019.72 1125.27,1019.24 1125.17,1018.77 1125.08,1018.29 1125.01,1017.81 1124.95,1017.33 1124.9,1016.84 1124.87,1016.36 1124.85,1015.87 1124.84,1015.39 " />
<polyline fill="none" vector-effect="none" points="1124.84,310.389 1124.85,309.903 1124.87,309.418 1124.9,308.933 1124.95,308.45 1125.01,307.968 1125.08,307.488 1125.17,307.01 1125.27,306.535 1125.38,306.062 1125.51,305.593 1125.64,305.127 1125.79,304.666 1125.96,304.208 1126.13,303.756 1126.32,303.308 1126.52,302.866 1126.73,302.429 1126.96,301.998 1127.19,301.574 1127.44,301.156 1127.7,300.745 1127.97,300.342 1128.25,299.946 1128.54,299.558 1128.85,299.178 1129.16,298.806 1129.48,298.443 1129.81,298.089 1130.16,297.745 1130.51,297.41 1130.87,297.084 1131.24,296.769 1131.62,296.464 1132,296.17 1132.4,295.886 1132.8,295.613 1133.21,295.351 1133.62,295.101 1134.05,294.862 1134.48,294.634 1134.91,294.419 1135.35,294.216 1135.8,294.024 1136.25,293.846 1136.71,293.679 1137.17,293.525 1137.63,293.384 1138.1,293.256 1138.57,293.14 1139.05,293.038 1139.52,292.948 1140,292.872 1140.48,292.809 1140.97,292.759 1141.45,292.722 1141.94,292.699 1142.42,292.689 1142.91,292.692 1143.39,292.709 1143.88,292.739 1144.36,292.782 1144.84,292.839 1145.32,292.909 1145.8,292.991 1146.28,293.087 1146.75,293.196 1147.22,293.318 1147.69,293.453 1148.15,293.601 1148.61,293.761 1149.06,293.933 1149.51,294.119 1149.96,294.316 1150.39,294.525 1150.83,294.747 1151.25,294.98 1151.67,295.224 1152.08,295.481 1152.49,295.748 1152.89,296.026 1153.28,296.316 1153.66,296.615 1154.03,296.926 1154.4,297.246 1154.76,297.576 1155.1,297.916 1155.44,298.265 1155.77,298.624 1156.09,298.991 1156.39,299.367 1156.69,299.751 1156.98,300.143 1157.25,300.543 1157.52,300.95 1157.77,301.364 1158.01,301.785 1158.24,302.213 1158.46,302.647 1158.67,303.086 1158.86,303.531 1159.04,303.981 1159.21,304.436 1159.37,304.896 1159.51,305.36 1159.65,305.827 1159.76,306.298 1159.87,306.772 1159.96,307.249 1160.04,307.728 1160.11,308.209 1160.16,308.692 1160.2,309.176 1160.23,309.66 1160.24,310.146 1160.24,310.632 1160.23,311.117 1160.2,311.602 1160.16,312.086 1160.11,312.569 1160.04,313.05 1159.96,313.529 1159.87,314.005 1159.76,314.479 1159.65,314.95 1159.51,315.418 1159.37,315.881 1159.21,316.341 1159.04,316.796 1158.86,317.246 1158.67,317.691 1158.46,318.131 1158.24,318.565 1158.01,318.992 1157.77,319.413 1157.52,319.828 1157.25,320.235 1156.98,320.635 1156.69,321.027 1156.39,321.411 1156.09,321.787 1155.77,322.154 1155.44,322.512 1155.1,322.862 1154.76,323.201 1154.4,323.532 1154.03,323.852 1153.66,324.162 1153.28,324.462 1152.89,324.751 1152.49,325.029 1152.08,325.297 1151.67,325.553 1151.25,325.798 1150.83,326.031 1150.39,326.252 1149.96,326.462 1149.51,326.659 1149.06,326.844 1148.61,327.017 1148.15,327.177 1147.69,327.324 1147.22,327.459 1146.75,327.581 1146.28,327.69 1145.8,327.786 1145.32,327.869 1144.84,327.939 1144.36,327.995 1143.88,328.038 1143.39,328.068 1142.91,328.085 1142.42,328.088 1141.94,328.078 1141.45,328.055 1140.97,328.018 1140.48,327.969 1140,327.905 1139.52,327.829 1139.05,327.74 1138.57,327.637 1138.1,327.522 1137.63,327.393 1137.17,327.252 1136.71,327.098 1136.25,326.932 1135.8,326.753 1135.35,326.562 1134.91,326.358 1134.48,326.143 1134.05,325.916 1133.62,325.677 1133.21,325.426 1132.8,325.164 1132.4,324.892 1132,324.608 1131.62,324.313 1131.24,324.008 1130.87,323.693 1130.51,323.368 1130.16,323.033 1129.81,322.688 1129.48,322.334 1129.16,321.971 1128.85,321.6 1128.54,321.22 1128.25,320.832 1127.97,320.436 1127.7,320.032 1127.44,319.621 1127.19,319.204 1126.96,318.779 1126.73,318.349 1126.52,317.912 1126.32,317.469 1126.13,317.022 1125.96,316.569 1125.79,316.112 1125.64,315.65 1125.51,315.184 1125.38,314.715 1125.27,314.243 1125.17,313.767 1125.08,313.289 1125.01,312.809 1124.95,312.327 1124.9,311.844 1124.87,311.36 1124.85,310.874 1124.84,310.389 " />
</g>

<g fill="none" stroke="#000000" stroke-opacity="1" stroke-width="1" stroke-linecap="square" stroke-linejoin="bevel" transform="matrix(1,0,0,1,0,0)"
font-family="Arial" font-size="12" font-weight="400" font-style="normal" 
>
</g>
</g>
</svg>
